<?xml version="1.0" encoding="UTF-8" standalone="no"?>
<!-- Created with Inkscape (http://www.inkscape.org/) -->

<svg
   width="245"
   height="55"
   viewBox="0 0 64.822915 14.552084"
   version="1.1"
   id="svg15884"
   inkscape:version="1.1.2 (b8e25be833, 2022-02-05)"
   sodipodi:docname="arrow-asset.svg"
   xmlns:inkscape="http://www.inkscape.org/namespaces/inkscape"
   xmlns:sodipodi="http://sodipodi.sourceforge.net/DTD/sodipodi-0.dtd"
   xmlns="http://www.w3.org/2000/svg"
   xmlns:svg="http://www.w3.org/2000/svg">
  <sodipodi:namedview
     id="namedview15886"
     pagecolor="#ffffff"
     bordercolor="#666666"
     borderopacity="1.0"
     inkscape:pageshadow="2"
     inkscape:pageopacity="0.0"
     inkscape:pagecheckerboard="0"
     inkscape:document-units="mm"
     showgrid="false"
     units="px"
     inkscape:zoom="4.323827"
     inkscape:cx="156.45862"
     inkscape:cy="32.263085"
     inkscape:window-width="1920"
     inkscape:window-height="1051"
     inkscape:window-x="-9"
     inkscape:window-y="-9"
     inkscape:window-maximized="1"
     inkscape:current-layer="layer1" />
  <defs
     id="defs15881" />
  <g
     inkscape:label="Warstwa 1"
     inkscape:groupmode="layer"
     id="layer1">
    <g
       id="g2243"
       transform="matrix(0.26458333,0,0,0.26458333,-25.726389,-420.75413)">
      <g
         id="_x30_3_Arrow_Up-13"
         data-name="_x30_3_Arrow_Up">
        <g
           id="g2219">
          <path
             class="cls-31"
             d="m 308.1,1592.4 c -0.2,0.6 -0.1,1.2 0.3,1.6 7.7,7.9 9,16.3 9.2,24 -0.3,7.9 -1.6,16.2 -9.2,24.1 -0.4,0.4 -0.5,1.1 -0.3,1.6 0.2,0.6 0.8,0.9 1.4,0.9 14.5,0 30.8,-24.8 31.5,-25.8 0.2,-0.2 0.2,-0.5 0.2,-0.8 v 0 c 0,-0.3 0,-0.6 -0.2,-0.8 -0.7,-1.1 -16.9,-25.8 -31.5,-25.8 -14.6,0 -1.2,0.4 -1.4,0.9 v 0 z m 29.8,25.7 c -2.6,3.8 -13.9,19.6 -24.5,23 5.9,-7.7 7.1,-15.9 7.3,-23 -0.2,-7.1 -1.4,-15.2 -7.3,-22.9 10.6,3.4 21.9,19.2 24.5,23 z"
             id="path2215" />
          <path
             class="cls-31"
             d="m 277.9,1592.4 c -0.2,0.6 -0.1,1.2 0.3,1.6 7.7,7.9 9,16.3 9.2,24 -0.3,7.9 -1.6,16.2 -9.2,24.1 -0.4,0.4 -0.5,1.1 -0.3,1.6 0.2,0.6 0.8,0.9 1.4,0.9 14.5,0 30.8,-24.8 31.5,-25.8 0.2,-0.2 0.2,-0.5 0.2,-0.8 v 0 c 0,-0.3 0,-0.6 -0.2,-0.8 -0.7,-1.1 -16.9,-25.8 -31.5,-25.8 -0.6,0 -1.2,0.4 -1.4,0.9 v 0 z m 29.8,25.7 c -2.6,3.8 -13.9,19.6 -24.5,23 5.9,-7.7 7.1,-15.9 7.3,-23 -0.2,-7.1 -1.4,-15.2 -7.3,-22.9 10.6,3.4 21.9,19.2 24.5,23 z"
             id="path2217" />
        </g>
      </g>
      <g
         id="_x30_3_Arrow_Up-14"
         data-name="_x30_3_Arrow_Up">
        <g
           id="g2226">
          <path
             class="cls-31"
             d="m 247.8,1592.4 c -0.2,0.6 -0.1,1.2 0.3,1.6 7.7,7.9 9,16.3 9.2,24 -0.3,7.9 -1.6,16.2 -9.2,24.1 -0.4,0.4 -0.5,1.1 -0.3,1.6 0.2,0.6 0.8,0.9 1.4,0.9 14.5,0 30.8,-24.8 31.5,-25.8 0.2,-0.2 0.2,-0.5 0.2,-0.8 v 0 c 0,-0.3 0,-0.6 -0.2,-0.8 -0.7,-1.1 -16.9,-25.8 -31.5,-25.8 -14.6,0 -1.2,0.4 -1.4,0.9 v 0 z m 29.8,25.7 c -2.6,3.8 -13.9,19.6 -24.5,23 5.9,-7.7 7.1,-15.9 7.3,-23 -0.2,-7.1 -1.4,-15.2 -7.3,-22.9 10.6,3.4 21.9,19.2 24.5,23 z"
             id="path2222" />
          <path
             class="cls-31"
             d="m 217.6,1592.4 c -0.2,0.6 -0.1,1.2 0.3,1.6 7.7,7.9 9,16.3 9.2,24 -0.3,7.9 -1.6,16.2 -9.2,24.1 -0.4,0.4 -0.5,1.1 -0.3,1.6 0.2,0.6 0.8,0.9 1.4,0.9 14.5,0 30.8,-24.8 31.5,-25.8 0.2,-0.2 0.2,-0.5 0.2,-0.8 v 0 c 0,-0.3 0,-0.6 -0.2,-0.8 -0.7,-1.1 -16.9,-25.8 -31.5,-25.8 -0.6,0 -1.2,0.4 -1.4,0.9 v 0 z m 29.8,25.7 c -2.6,3.8 -13.9,19.6 -24.5,23 5.9,-7.7 7.1,-15.9 7.3,-23 -0.2,-7.1 -1.4,-15.2 -7.3,-22.9 10.6,3.4 21.9,19.2 24.5,23 z"
             id="path2224" />
        </g>
      </g>
      <g
         id="_x30_3_Arrow_Up-15"
         data-name="_x30_3_Arrow_Up">
        <g
           id="g2233">
          <path
             class="cls-31"
             d="m 189,1592.4 c -0.2,0.6 -0.1,1.2 0.3,1.6 7.7,7.9 9,16.3 9.2,24 -0.3,7.9 -1.6,16.2 -9.2,24.1 -0.4,0.4 -0.5,1.1 -0.3,1.6 0.2,0.6 0.8,0.9 1.4,0.9 14.5,0 30.8,-24.8 31.5,-25.8 0.2,-0.2 0.2,-0.5 0.2,-0.8 v 0 c 0,-0.3 0,-0.6 -0.2,-0.8 -0.7,-1.1 -16.9,-25.8 -31.5,-25.8 -14.6,0 -1.2,0.4 -1.4,0.9 v 0 z m 29.8,25.7 c -2.6,3.8 -13.9,19.6 -24.5,23 5.9,-7.7 7.1,-15.9 7.3,-23 -0.2,-7.1 -1.4,-15.2 -7.3,-22.9 10.6,3.4 21.9,19.2 24.5,23 z"
             id="path2229" />
          <path
             class="cls-31"
             d="m 158.9,1592.4 c -0.2,0.6 -0.1,1.2 0.3,1.6 7.7,7.9 9,16.3 9.2,24 -0.3,7.9 -1.6,16.2 -9.2,24.1 -0.4,0.4 -0.5,1.1 -0.3,1.6 0.2,0.6 0.8,0.9 1.4,0.9 14.5,0 30.8,-24.8 31.5,-25.8 0.2,-0.2 0.2,-0.5 0.2,-0.8 v 0 c 0,-0.3 0,-0.6 -0.2,-0.8 -0.7,-1.1 -16.9,-25.8 -31.5,-25.8 -0.6,0 -1.2,0.4 -1.4,0.9 v 0 z m 29.7,25.7 c -2.6,3.8 -13.9,19.6 -24.5,23 5.9,-7.7 7.1,-15.9 7.3,-23 -0.2,-7.1 -1.4,-15.2 -7.3,-22.9 10.6,3.4 21.9,19.2 24.5,23 z"
             id="path2231" />
        </g>
      </g>
      <g
         id="_x30_3_Arrow_Up-16"
         data-name="_x30_3_Arrow_Up">
        <g
           id="g2240">
          <path
             class="cls-31"
             d="m 129.4,1592.4 c -0.2,0.6 -0.1,1.2 0.3,1.6 7.7,7.9 9,16.3 9.2,24 -0.3,7.9 -1.6,16.2 -9.2,24.1 -0.4,0.4 -0.5,1.1 -0.3,1.6 0.2,0.6 0.8,0.9 1.4,0.9 14.5,0 30.8,-24.8 31.5,-25.8 0.2,-0.2 0.2,-0.5 0.2,-0.8 v 0 c 0,-0.3 0,-0.6 -0.2,-0.8 -0.7,-1.1 -16.9,-25.8 -31.5,-25.8 -14.6,0 -1.2,0.4 -1.4,0.9 v 0 z m 29.8,25.7 c -2.6,3.8 -13.9,19.6 -24.5,23 5.9,-7.7 7.1,-15.9 7.3,-23 -0.2,-7.1 -1.4,-15.2 -7.3,-22.9 10.6,3.4 21.9,19.2 24.5,23 z"
             id="path2236" />
          <path
             class="cls-31"
             d="m 99.2,1592.4 c -0.2,0.6 -0.1,1.2 0.3,1.6 7.7,7.9 9,16.3 9.2,24 -0.3,7.9 -1.6,16.2 -9.2,24.1 -0.4,0.4 -0.5,1.1 -0.3,1.6 0.2,0.6 0.8,0.9 1.4,0.9 14.5,0 30.8,-24.8 31.5,-25.8 0.2,-0.2 0.2,-0.5 0.2,-0.8 v 0 c 0,-0.3 0,-0.6 -0.2,-0.8 -0.7,-1.1 -16.9,-25.8 -31.5,-25.8 -0.6,0 -1.2,0.4 -1.4,0.9 v 0 z m 29.8,25.7 c -2.6,3.8 -13.9,19.6 -24.5,23 5.9,-7.7 7.1,-15.9 7.3,-23 -0.2,-7.1 -1.4,-15.2 -7.3,-22.9 10.6,3.4 21.9,19.2 24.5,23 z"
             id="path2238" />
        </g>
      </g>
    </g>
  </g>
</svg>
