<svg id="Warstwa_1" data-name="Warstwa 1" xmlns="http://www.w3.org/2000/svg" version="1.1" viewBox="0 0 267.3 287.6"><defs><style>.cls-1,.cls-2{fill:#000;stroke-width:0}.cls-2{fill:#fff}</style></defs><path class="cls-1" d="M0 287.4V68.1c0-2.4.7-3.3 3-3.9 25.8-6.8 51.7-7.4 77.3.5 19.3 6 36.6 1.3 53.4-7.9 6.6-3.6 12-8.9 16.8-14.7 10.6-12.6 21.2-25.3 31.8-37.8 3-3.6 6.9-5.1 11.6-3.9 4.7 1.2 7.7 4.3 8.5 9 .3 2 0 4.3-.6 6.3-4.9 14.9-9.7 29.9-15 44.6-2.2 6.3-5.5 12.2-8.4 18.8.2.3.9 1 1.6 1.7 9 9 17.9 18.1 27 27 7.6 7.5 11.4 16.5 11.3 27.2 0 4.1 1 7.6 3.2 11.1 10.3 16.3 20.4 32.7 30.7 48.9 2.2 3.4 5.2 6.3 8.1 9.2 10.2 10.5 9.1 24.3-2.8 32.8-7.8 5.6-15.7 11.2-23.6 16.8-9 6.4-18.7 7.4-28.2 1.9-5.9-3.5-10-2.9-15.4 1.2-20.5 15.6-43.4 16.9-67.4 10.1-2.8-.8-5.6-1.6-8.2-2.8-4.4-2-8.7-1.9-13.3-.7-7.2 1.9-14.2 4.1-20.6 8-5.7 3.4-10.1 8-12.9 14-.4.9-1.8 2-2.7 2-21.2.1-42.5 0-63.7 0-.4 0-.7-.1-1.3-.2zM166.9 91.9c-8.2 7.9-17.2 14-27.6 17.5-15 5-30.1 9.6-45.2 14.2-2.2.7-4.6.4-6.9.8-1.3.2-2.9.7-3.8 1.6-6.4 6.8-10.9 14.7-13.2 23.8-.3 1.3-.5 2.6-.8 4.2 8-1 15.6-2.4 22.3-6.3 3.8-2.3 6.8-5.3 7.4-10 0-.7.3-1.4.5-1.9h16.8c-.1 1.5-.1 2.8-.3 4.1-1.7 11.6-8.6 19.2-18.7 24.3-9.8 4.9-20.4 6.7-31.2 7.3-4.8.3-9.6 0-14.5 0-1.6-20.9 3.8-39.3 17.3-54.9-9.7-12.4-9.8-24.7-.2-37-.7-.2-1.2-.4-1.8-.5-15.4-3-30.8-3.4-46.3-1-2.8.4-3.4 1.4-3.4 4.1v188.6h3.4c9.5 0 19.1-.2 28.6.1 4.9.2 8.3-1.1 11.7-4.9 8.5-9.6 20.2-14.2 32.2-17.8 9.8-2.9 19.5-4.3 29.1.9.6.3 1.4.4 2.1.7 9.2 3.8 18.7 4.9 28.6 3.8 9.6-1 18.8-3 26.5-9.5 2.6-2.2 5.4-4 8.2-5.9 5.5-3.7 11.3-4.3 17.3-1.5 2.7 1.2 5.4 2.5 8 4 4 2.2 7.6 1.9 11.2-.7 7.7-5.6 15.5-11.1 23.3-16.6 3.2-2.3 3.3-3.9.5-6.8-3.1-3.3-6.6-6.2-9-10-10.6-16.4-20.6-33.2-31.2-49.6-4.6-7.1-7-14.6-6.8-23 .1-5.1-1.9-9.5-5.5-13.1l-9.9-9.9-18.8-18.8zm8.7-53c-4.1 4.9-8 9.5-11.9 14.1-12.1 14.5-27.3 24.2-45.8 28.5-10.4 2.4-20.8 4.6-31.2 7-6 1.4-9.1 6.2-7.7 11.5 1.5 5.6 6.7 8.3 12.5 6.6 12.6-3.9 25.2-7.7 37.7-11.8 27.2-8.7 40.2-29.3 46.4-56z"/><path class="cls-2" d="M172.1 88.3c6.7 6.7 13.2 13.2 19.6 19.7l10.4 10.4c3.7 3.8 5.8 8.3 5.7 13.7-.2 8.8 2.3 16.6 7.1 24 11.1 17.1 21.6 34.7 32.6 51.8 2.5 3.9 6.2 7 9.4 10.4 2.9 3 2.8 4.7-.5 7.1-8.1 5.8-16.3 11.5-24.3 17.4-3.8 2.8-7.6 3.1-11.7.8-2.7-1.5-5.5-2.9-8.4-4.2-6.3-2.9-12.4-2.3-18.1 1.6-2.9 2-5.9 3.9-8.6 6.2-8 6.7-17.7 8.8-27.7 9.9-10.3 1.1-20.3 0-29.9-4-.7-.3-1.5-.4-2.2-.8-10-5.4-20.1-4-30.4-.9-12.6 3.7-24.7 8.5-33.6 18.6-3.6 4-7.1 5.3-12.2 5.2-10-.4-19.9-.1-29.9-.1h-3.6V78.2c0-2.8.6-3.8 3.5-4.3 16.2-2.5 32.3-2.2 48.4 1 .6.1 1.1.3 1.8.5-10 12.9-9.9 25.7.2 38.7-14.1 16.4-19.7 35.5-18.1 57.4 5.1 0 10.1.2 15.1 0 11.3-.6 22.3-2.5 32.6-7.6 10.6-5.3 17.8-13.2 19.6-25.3.2-1.3.2-2.7.3-4.3h-17.6c-.1.6-.4 1.3-.5 2-.6 4.9-3.7 8.1-7.7 10.4-7 4.2-14.9 5.6-23.3 6.6.3-1.6.5-3 .9-4.4 2.4-9.5 7.1-17.7 13.8-24.8.9-1 2.6-1.4 4-1.6 2.4-.4 5-.1 7.2-.8 15.8-4.8 31.6-9.5 47.2-14.8 10.9-3.7 20.2-10.1 28.8-18.3zm-32.5 52c12.2 7 24 13.9 36 20.8 3.1-5.3 6-10.3 8.9-15.4-3.1-1.8-6-3.5-9.2-5.4 3.2-1.9 6.1-3.6 9.2-5.4-3.1-5.3-6-10.3-8.9-15.4-12 7-23.7 13.7-35.9 20.8zm97.5 70.9c-2.8-2.1-6.2-3.3-6.9-5.4-1.1-3.2-2.9-3.2-5.4-3.1h-13.2c0 13.7 13.1 26.7 24.5 24.6.4-5.6.7-11.2 1-16.1z"/><path class="cls-2" d="M175.6 38.9c-6.1 26.7-19.2 47.2-46.4 56-12.5 4-25.1 7.9-37.7 11.8-5.8 1.8-11-1-12.5-6.6-1.4-5.4 1.7-10.2 7.7-11.5 10.4-2.4 20.8-4.6 31.2-7 18.5-4.3 33.7-13.9 45.8-28.5 3.9-4.7 7.8-9.3 11.9-14.1z"/><path class="cls-1" d="M139.6 140.3c12.2-7.1 23.9-13.9 35.9-20.8 3 5.1 5.9 10.2 8.9 15.4-3.1 1.8-6 3.5-9.2 5.4 3.2 1.9 6 3.5 9.2 5.4-3 5.1-5.9 10.2-8.9 15.4-12-6.9-23.8-13.8-36-20.8zM237.1 211.2c-.3 4.8-.7 10.5-1 16.1-11.4 2.1-24.6-10.8-24.5-24.6h13.2c2.5-.1 4.2-.1 5.4 3.1.8 2.1 4.1 3.3 6.9 5.4z"/></svg>