<?xml version="1.0" encoding="UTF-8" standalone="no"?>
<!-- Created with Inkscape (http://www.inkscape.org/) -->

<svg
   width="970"
   height="55"
   viewBox="0 0 256.64583 14.552084"
   version="1.1"
   id="svg13214"
   inkscape:version="1.1.2 (b8e25be833, 2022-02-05)"
   sodipodi:docname="menu-asset.svg"
   xmlns:inkscape="http://www.inkscape.org/namespaces/inkscape"
   xmlns:sodipodi="http://sodipodi.sourceforge.net/DTD/sodipodi-0.dtd"
   xmlns="http://www.w3.org/2000/svg"
   xmlns:svg="http://www.w3.org/2000/svg">
  <sodipodi:namedview
     id="namedview13216"
     pagecolor="#ffffff"
     bordercolor="#666666"
     borderopacity="1.0"
     inkscape:pageshadow="2"
     inkscape:pageopacity="0.0"
     inkscape:pagecheckerboard="0"
     inkscape:document-units="mm"
     showgrid="false"
     units="px"
     inkscape:zoom="1.5287037"
     inkscape:cx="457.57723"
     inkscape:cy="112.8407"
     inkscape:window-width="1920"
     inkscape:window-height="1051"
     inkscape:window-x="-9"
     inkscape:window-y="-9"
     inkscape:window-maximized="1"
     inkscape:current-layer="layer1">
    <sodipodi:guide
       position="0,14.552084"
       orientation="0,970"
       id="guide13503" />
    <sodipodi:guide
       position="256.64584,14.552084"
       orientation="55,0"
       id="guide13505" />
    <sodipodi:guide
       position="256.64584,0"
       orientation="0,-970"
       id="guide13507" />
    <sodipodi:guide
       position="0,0"
       orientation="-55,0"
       id="guide13509" />
  </sodipodi:namedview>
  <defs
     id="defs13211" />
  <g
     inkscape:label="Warstwa 1"
     inkscape:groupmode="layer"
     id="layer1">
    <g
       id="g12899"
       transform="matrix(0.26458333,0,0,0.26458333,-61.975659,-3141.8477)">
      <g
         id="g12807">
        <g
           id="_x30_3_Arrow_Up-53"
           data-name="_x30_3_Arrow_Up">
          <g
             id="g12783">
            <path
               class="cls-96"
               d="m 446.5,11877 c -0.2,0.6 -0.1,1.2 0.3,1.6 7.7,7.9 9,16.3 9.2,24 -0.3,7.9 -1.6,16.2 -9.2,24.1 -0.4,0.4 -0.5,1.1 -0.3,1.6 0.2,0.6 0.8,0.9 1.4,0.9 14.5,0 30.8,-24.8 31.5,-25.8 0.2,-0.2 0.2,-0.5 0.2,-0.8 v 0 c 0,-0.3 0,-0.6 -0.2,-0.8 -0.7,-1.1 -16.9,-25.8 -31.5,-25.8 -14.6,0 -1.2,0.4 -1.4,0.9 v 0 z m 29.8,25.7 c -2.6,3.8 -13.9,19.6 -24.5,23 5.9,-7.7 7.1,-15.9 7.3,-23 -0.2,-7.1 -1.4,-15.2 -7.3,-22.9 10.6,3.4 21.9,19.2 24.5,23 z"
               id="path12779" />
            <path
               class="cls-96"
               d="m 416.3,11877 c -0.2,0.6 -0.1,1.2 0.3,1.6 7.7,7.9 9,16.3 9.2,24 -0.3,7.9 -1.6,16.2 -9.2,24.1 -0.4,0.4 -0.5,1.1 -0.3,1.6 0.2,0.6 0.8,0.9 1.4,0.9 14.5,0 30.8,-24.8 31.5,-25.8 0.2,-0.2 0.2,-0.5 0.2,-0.8 v 0 c 0,-0.3 0,-0.6 -0.2,-0.8 -0.7,-1.1 -16.9,-25.8 -31.5,-25.8 -0.6,0 -1.2,0.4 -1.4,0.9 v 0 z m 29.8,25.7 c -2.6,3.8 -13.9,19.6 -24.5,23 5.9,-7.7 7.1,-15.9 7.3,-23 -0.2,-7.1 -1.4,-15.2 -7.3,-22.9 10.6,3.4 21.9,19.2 24.5,23 z"
               id="path12781" />
          </g>
        </g>
        <g
           id="_x30_3_Arrow_Up-54"
           data-name="_x30_3_Arrow_Up">
          <g
             id="g12790">
            <path
               class="cls-96"
               d="m 386.2,11877 c -0.2,0.6 -0.1,1.2 0.3,1.6 7.7,7.9 9,16.3 9.2,24 -0.3,7.9 -1.6,16.2 -9.2,24.1 -0.4,0.4 -0.5,1.1 -0.3,1.6 0.2,0.6 0.8,0.9 1.4,0.9 14.5,0 30.8,-24.8 31.5,-25.8 0.2,-0.2 0.2,-0.5 0.2,-0.8 v 0 c 0,-0.3 0,-0.6 -0.2,-0.8 -0.7,-1.1 -16.9,-25.8 -31.5,-25.8 -14.6,0 -1.2,0.4 -1.4,0.9 v 0 z m 29.8,25.7 c -2.6,3.8 -13.9,19.6 -24.5,23 5.9,-7.7 7.1,-15.9 7.3,-23 -0.2,-7.1 -1.4,-15.2 -7.3,-22.9 10.6,3.4 21.9,19.2 24.5,23 z"
               id="path12786" />
            <path
               class="cls-96"
               d="m 356,11877 c -0.2,0.6 -0.1,1.2 0.3,1.6 7.7,7.9 9,16.3 9.2,24 -0.3,7.9 -1.6,16.2 -9.2,24.1 -0.4,0.4 -0.5,1.1 -0.3,1.6 0.2,0.6 0.8,0.9 1.4,0.9 14.5,0 30.8,-24.8 31.5,-25.8 0.2,-0.2 0.2,-0.5 0.2,-0.8 v 0 c 0,-0.3 0,-0.6 -0.2,-0.8 -0.7,-1.1 -16.9,-25.8 -31.5,-25.8 -0.6,0 -1.2,0.4 -1.4,0.9 v 0 z m 29.8,25.7 c -2.6,3.8 -13.9,19.6 -24.5,23 5.9,-7.7 7.1,-15.9 7.3,-23 -0.2,-7.1 -1.4,-15.2 -7.3,-22.9 10.6,3.4 21.9,19.2 24.5,23 z"
               id="path12788" />
          </g>
        </g>
        <g
           id="_x30_3_Arrow_Up-55"
           data-name="_x30_3_Arrow_Up">
          <g
             id="g12797">
            <path
               class="cls-96"
               d="m 327.4,11877 c -0.2,0.6 -0.1,1.2 0.3,1.6 7.7,7.9 9,16.3 9.2,24 -0.3,7.9 -1.6,16.2 -9.2,24.1 -0.4,0.4 -0.5,1.1 -0.3,1.6 0.2,0.6 0.8,0.9 1.4,0.9 14.5,0 30.8,-24.8 31.5,-25.8 0.2,-0.2 0.2,-0.5 0.2,-0.8 v 0 c 0,-0.3 0,-0.6 -0.2,-0.8 -0.7,-1.1 -16.9,-25.8 -31.5,-25.8 -14.6,0 -1.2,0.4 -1.4,0.9 v 0 z m 29.8,25.7 c -2.6,3.8 -13.9,19.6 -24.5,23 5.9,-7.7 7.1,-15.9 7.3,-23 -0.2,-7.1 -1.4,-15.2 -7.3,-22.9 10.6,3.4 21.9,19.2 24.5,23 z"
               id="path12793" />
            <path
               class="cls-96"
               d="m 297.3,11877 c -0.2,0.6 -0.1,1.2 0.3,1.6 7.7,7.9 9,16.3 9.2,24 -0.3,7.9 -1.6,16.2 -9.2,24.1 -0.4,0.4 -0.5,1.1 -0.3,1.6 0.2,0.6 0.8,0.9 1.4,0.9 14.5,0 30.8,-24.8 31.5,-25.8 0.2,-0.2 0.2,-0.5 0.2,-0.8 v 0 c 0,-0.3 0,-0.6 -0.2,-0.8 -0.7,-1.1 -16.9,-25.8 -31.5,-25.8 -0.6,0 -1.2,0.4 -1.4,0.9 v 0 z m 29.7,25.7 c -2.6,3.8 -13.9,19.6 -24.5,23 5.9,-7.7 7.1,-15.9 7.3,-23 -0.2,-7.1 -1.4,-15.2 -7.3,-22.9 10.6,3.4 21.9,19.2 24.5,23 z"
               id="path12795" />
          </g>
        </g>
        <g
           id="_x30_3_Arrow_Up-56"
           data-name="_x30_3_Arrow_Up">
          <g
             id="g12804">
            <path
               class="cls-96"
               d="m 267.8,11877 c -0.2,0.6 -0.1,1.2 0.3,1.6 7.7,7.9 9,16.3 9.2,24 -0.3,7.9 -1.6,16.2 -9.2,24.1 -0.4,0.4 -0.5,1.1 -0.3,1.6 0.2,0.6 0.8,0.9 1.4,0.9 14.5,0 30.8,-24.8 31.5,-25.8 0.2,-0.2 0.2,-0.5 0.2,-0.8 v 0 c 0,-0.3 0,-0.6 -0.2,-0.8 -0.7,-1.1 -16.9,-25.8 -31.5,-25.8 -14.6,0 -1.2,0.4 -1.4,0.9 v 0 z m 29.8,25.7 c -2.6,3.8 -13.9,19.6 -24.5,23 5.9,-7.7 7.1,-15.9 7.3,-23 -0.2,-7.1 -1.4,-15.2 -7.3,-22.9 10.6,3.4 21.9,19.2 24.5,23 z"
               id="path12800" />
            <path
               class="cls-96"
               d="m 237.6,11877 c -0.2,0.6 -0.1,1.2 0.3,1.6 7.7,7.9 9,16.3 9.2,24 -0.3,7.9 -1.6,16.2 -9.2,24.1 -0.4,0.4 -0.5,1.1 -0.3,1.6 0.2,0.6 0.8,0.9 1.4,0.9 14.5,0 30.8,-24.8 31.5,-25.8 0.2,-0.2 0.2,-0.5 0.2,-0.8 v 0 c 0,-0.3 0,-0.6 -0.2,-0.8 -0.7,-1.1 -16.9,-25.8 -31.5,-25.8 -0.6,0 -1.2,0.4 -1.4,0.9 v 0 z m 29.8,25.7 c -2.6,3.8 -13.9,19.6 -24.5,23 5.9,-7.7 7.1,-15.9 7.3,-23 -0.2,-7.1 -1.4,-15.2 -7.3,-22.9 10.6,3.4 21.9,19.2 24.5,23 z"
               id="path12802" />
          </g>
        </g>
      </g>
      <g
         id="g12837">
        <g
           id="_x30_3_Arrow_Up-57"
           data-name="_x30_3_Arrow_Up">
          <g
             id="g12813">
            <path
               class="cls-96"
               d="m 686.6,11877 c -0.2,0.6 -0.1,1.2 0.3,1.6 7.7,7.9 9,16.3 9.2,24 -0.3,7.9 -1.6,16.2 -9.2,24.1 -0.4,0.4 -0.5,1.1 -0.3,1.6 0.2,0.6 0.8,0.9 1.4,0.9 14.5,0 30.8,-24.8 31.5,-25.8 0.2,-0.2 0.2,-0.5 0.2,-0.8 v 0 c 0,-0.3 0,-0.6 -0.2,-0.8 -0.7,-1.1 -16.9,-25.8 -31.5,-25.8 -14.6,0 -1.2,0.4 -1.4,0.9 v 0 z m 29.8,25.7 c -2.6,3.8 -13.9,19.6 -24.5,23 5.9,-7.7 7.1,-15.9 7.3,-23 -0.2,-7.1 -1.4,-15.2 -7.3,-22.9 10.6,3.4 21.9,19.2 24.5,23 z"
               id="path12809" />
            <path
               class="cls-96"
               d="m 656.4,11877 c -0.2,0.6 -0.1,1.2 0.3,1.6 7.7,7.9 9,16.3 9.2,24 -0.3,7.9 -1.6,16.2 -9.2,24.1 -0.4,0.4 -0.5,1.1 -0.3,1.6 0.2,0.6 0.8,0.9 1.4,0.9 14.5,0 30.8,-24.8 31.5,-25.8 0.2,-0.2 0.2,-0.5 0.2,-0.8 v 0 c 0,-0.3 0,-0.6 -0.2,-0.8 -0.7,-1.1 -16.9,-25.8 -31.5,-25.8 -0.6,0 -1.2,0.4 -1.4,0.9 v 0 z m 29.8,25.7 c -2.6,3.8 -13.9,19.6 -24.5,23 5.9,-7.7 7.1,-15.9 7.3,-23 -0.2,-7.1 -1.4,-15.2 -7.3,-22.9 10.6,3.4 21.9,19.2 24.5,23 z"
               id="path12811" />
          </g>
        </g>
        <g
           id="_x30_3_Arrow_Up-58"
           data-name="_x30_3_Arrow_Up">
          <g
             id="g12820">
            <path
               class="cls-96"
               d="m 626.3,11877 c -0.2,0.6 -0.1,1.2 0.3,1.6 7.7,7.9 9,16.3 9.2,24 -0.3,7.9 -1.6,16.2 -9.2,24.1 -0.4,0.4 -0.5,1.1 -0.3,1.6 0.2,0.6 0.8,0.9 1.4,0.9 14.5,0 30.8,-24.8 31.5,-25.8 0.2,-0.2 0.2,-0.5 0.2,-0.8 v 0 c 0,-0.3 0,-0.6 -0.2,-0.8 -0.7,-1.1 -16.9,-25.8 -31.5,-25.8 -14.6,0 -1.2,0.4 -1.4,0.9 v 0 z m 29.8,25.7 c -2.6,3.8 -13.9,19.6 -24.5,23 5.9,-7.7 7.1,-15.9 7.3,-23 -0.2,-7.1 -1.4,-15.2 -7.3,-22.9 10.6,3.4 21.9,19.2 24.5,23 z"
               id="path12816" />
            <path
               class="cls-96"
               d="m 596.1,11877 c -0.2,0.6 -0.1,1.2 0.3,1.6 7.7,7.9 9,16.3 9.2,24 -0.3,7.9 -1.6,16.2 -9.2,24.1 -0.4,0.4 -0.5,1.1 -0.3,1.6 0.2,0.6 0.8,0.9 1.4,0.9 14.5,0 30.8,-24.8 31.5,-25.8 0.2,-0.2 0.2,-0.5 0.2,-0.8 v 0 c 0,-0.3 0,-0.6 -0.2,-0.8 -0.7,-1.1 -16.9,-25.8 -31.5,-25.8 -0.6,0 -1.2,0.4 -1.4,0.9 v 0 z m 29.8,25.7 c -2.6,3.8 -13.9,19.6 -24.5,23 5.9,-7.7 7.1,-15.9 7.3,-23 -0.2,-7.1 -1.4,-15.2 -7.3,-22.9 10.6,3.4 21.9,19.2 24.5,23 z"
               id="path12818" />
          </g>
        </g>
        <g
           id="_x30_3_Arrow_Up-59"
           data-name="_x30_3_Arrow_Up">
          <g
             id="g12827">
            <path
               class="cls-96"
               d="m 567.5,11877 c -0.2,0.6 -0.1,1.2 0.3,1.6 7.7,7.9 9,16.3 9.2,24 -0.3,7.9 -1.6,16.2 -9.2,24.1 -0.4,0.4 -0.5,1.1 -0.3,1.6 0.2,0.6 0.8,0.9 1.4,0.9 14.5,0 30.8,-24.8 31.5,-25.8 0.2,-0.2 0.2,-0.5 0.2,-0.8 v 0 c 0,-0.3 0,-0.6 -0.2,-0.8 -0.7,-1.1 -16.9,-25.8 -31.5,-25.8 -14.6,0 -1.2,0.4 -1.4,0.9 v 0 z m 29.8,25.7 c -2.6,3.8 -13.9,19.6 -24.5,23 5.9,-7.7 7.1,-15.9 7.3,-23 -0.2,-7.1 -1.4,-15.2 -7.3,-22.9 10.6,3.4 21.9,19.2 24.5,23 z"
               id="path12823" />
            <path
               class="cls-96"
               d="m 537.3,11877 c -0.2,0.6 -0.1,1.2 0.3,1.6 7.7,7.9 9,16.3 9.2,24 -0.3,7.9 -1.6,16.2 -9.2,24.1 -0.4,0.4 -0.5,1.1 -0.3,1.6 0.2,0.6 0.8,0.9 1.4,0.9 14.5,0 30.8,-24.8 31.5,-25.8 0.2,-0.2 0.2,-0.5 0.2,-0.8 v 0 c 0,-0.3 0,-0.6 -0.2,-0.8 -0.7,-1.1 -16.9,-25.8 -31.5,-25.8 -0.6,0 -1.2,0.4 -1.4,0.9 v 0 z m 29.8,25.7 c -2.6,3.8 -13.9,19.6 -24.5,23 5.9,-7.7 7.1,-15.9 7.3,-23 -0.2,-7.1 -1.4,-15.2 -7.3,-22.9 10.6,3.4 21.9,19.2 24.5,23 z"
               id="path12825" />
          </g>
        </g>
        <g
           id="_x30_3_Arrow_Up-60"
           data-name="_x30_3_Arrow_Up">
          <g
             id="g12834">
            <path
               class="cls-96"
               d="m 507.9,11877 c -0.2,0.6 -0.1,1.2 0.3,1.6 7.7,7.9 9,16.3 9.2,24 -0.3,7.9 -1.6,16.2 -9.2,24.1 -0.4,0.4 -0.5,1.1 -0.3,1.6 0.2,0.6 0.8,0.9 1.4,0.9 14.5,0 30.8,-24.8 31.5,-25.8 0.2,-0.2 0.2,-0.5 0.2,-0.8 v 0 c 0,-0.3 0,-0.6 -0.2,-0.8 -0.7,-1.1 -16.9,-25.8 -31.5,-25.8 -14.6,0 -1.2,0.4 -1.4,0.9 v 0 z m 29.7,25.7 c -2.6,3.8 -13.9,19.6 -24.5,23 5.9,-7.7 7.1,-15.9 7.3,-23 -0.2,-7.1 -1.4,-15.2 -7.3,-22.9 10.6,3.4 21.9,19.2 24.5,23 z"
               id="path12830" />
            <path
               class="cls-96"
               d="m 477.7,11877 c -0.2,0.6 -0.1,1.2 0.3,1.6 7.7,7.9 9,16.3 9.2,24 -0.3,7.9 -1.6,16.2 -9.2,24.1 -0.4,0.4 -0.5,1.1 -0.3,1.6 0.2,0.6 0.8,0.9 1.4,0.9 14.5,0 30.8,-24.8 31.5,-25.8 0.2,-0.2 0.2,-0.5 0.2,-0.8 v 0 c 0,-0.3 0,-0.6 -0.2,-0.8 -0.7,-1.1 -16.9,-25.8 -31.5,-25.8 -0.6,0 -1.2,0.4 -1.4,0.9 v 0 z m 29.7,25.7 c -2.6,3.8 -13.9,19.6 -24.5,23 5.9,-7.7 7.1,-15.9 7.3,-23 -0.2,-7.1 -1.4,-15.2 -7.3,-22.9 10.6,3.4 21.9,19.2 24.5,23 z"
               id="path12832" />
          </g>
        </g>
      </g>
      <g
         id="g12867">
        <g
           id="_x30_3_Arrow_Up-61"
           data-name="_x30_3_Arrow_Up">
          <g
             id="g12843">
            <path
               class="cls-96"
               d="m 993.5,11928.5 c 0.2,-0.6 0.1,-1.2 -0.3,-1.6 -7.7,-7.9 -9,-16.3 -9.2,-24 0.3,-7.9 1.6,-16.2 9.2,-24.1 0.4,-0.4 0.5,-1.1 0.3,-1.6 -0.2,-0.6 -0.8,-0.9 -1.4,-0.9 -14.5,0 -30.8,24.8 -31.5,25.8 -0.2,0.2 -0.2,0.5 -0.2,0.8 v 0 c 0,0.3 0,0.6 0.2,0.8 0.7,1.1 16.9,25.8 31.5,25.8 14.6,0 1.2,-0.4 1.4,-0.9 v 0 z m -29.8,-25.8 c 2.6,-3.8 13.9,-19.6 24.5,-23 -5.9,7.7 -7.1,15.9 -7.3,23 0.2,7.1 1.4,15.2 7.3,22.9 -10.6,-3.4 -21.9,-19.2 -24.5,-23 z"
               id="path12839" />
            <path
               class="cls-96"
               d="m 1023.7,11928.5 c 0.2,-0.6 0.1,-1.2 -0.3,-1.6 -7.7,-7.9 -9,-16.3 -9.2,-24 0.3,-7.9 1.6,-16.2 9.2,-24.1 0.4,-0.4 0.5,-1.1 0.3,-1.6 -0.2,-0.6 -0.8,-0.9 -1.4,-0.9 -14.5,0 -30.8,24.8 -31.5,25.8 -0.2,0.2 -0.2,0.5 -0.2,0.8 v 0 c 0,0.3 0,0.6 0.2,0.8 0.7,1.1 16.9,25.8 31.5,25.8 0.6,0 1.2,-0.4 1.4,-0.9 v 0 z m -29.8,-25.8 c 2.6,-3.8 13.9,-19.6 24.5,-23 -5.9,7.7 -7.1,15.9 -7.3,23 0.2,7.1 1.4,15.2 7.3,22.9 -10.6,-3.4 -21.9,-19.2 -24.5,-23 z"
               id="path12841" />
          </g>
        </g>
        <g
           id="_x30_3_Arrow_Up-62"
           data-name="_x30_3_Arrow_Up">
          <g
             id="g12850">
            <path
               class="cls-96"
               d="m 1053.8,11928.5 c 0.2,-0.6 0.1,-1.2 -0.3,-1.6 -7.7,-7.9 -9,-16.3 -9.2,-24 0.3,-7.9 1.6,-16.2 9.2,-24.1 0.4,-0.4 0.5,-1.1 0.3,-1.6 -0.2,-0.6 -0.8,-0.9 -1.4,-0.9 -14.5,0 -30.8,24.8 -31.5,25.8 -0.2,0.2 -0.2,0.5 -0.2,0.8 v 0 c 0,0.3 0,0.6 0.2,0.8 0.7,1.1 16.9,25.8 31.5,25.8 14.6,0 1.2,-0.4 1.4,-0.9 v 0 z m -29.8,-25.8 c 2.6,-3.8 13.9,-19.6 24.5,-23 -5.9,7.7 -7.1,15.9 -7.3,23 0.2,7.1 1.4,15.2 7.3,22.9 -10.6,-3.4 -21.9,-19.2 -24.5,-23 z"
               id="path12846" />
            <path
               class="cls-96"
               d="m 1084,11928.5 c 0.2,-0.6 0.1,-1.2 -0.3,-1.6 -7.7,-7.9 -9,-16.3 -9.2,-24 0.3,-7.9 1.6,-16.2 9.2,-24.1 0.4,-0.4 0.5,-1.1 0.3,-1.6 -0.2,-0.6 -0.8,-0.9 -1.4,-0.9 -14.5,0 -30.8,24.8 -31.5,25.8 -0.2,0.2 -0.2,0.5 -0.2,0.8 v 0 c 0,0.3 0,0.6 0.2,0.8 0.7,1.1 16.9,25.8 31.5,25.8 0.6,0 1.2,-0.4 1.4,-0.9 v 0 z m -29.8,-25.8 c 2.6,-3.8 13.9,-19.6 24.5,-23 -5.9,7.7 -7.1,15.9 -7.3,23 0.2,7.1 1.4,15.2 7.3,22.9 -10.6,-3.4 -21.9,-19.2 -24.5,-23 z"
               id="path12848" />
          </g>
        </g>
        <g
           id="_x30_3_Arrow_Up-63"
           data-name="_x30_3_Arrow_Up">
          <g
             id="g12857">
            <path
               class="cls-96"
               d="m 1112.6,11928.5 c 0.2,-0.6 0.1,-1.2 -0.3,-1.6 -7.7,-7.9 -9,-16.3 -9.2,-24 0.3,-7.9 1.6,-16.2 9.2,-24.1 0.4,-0.4 0.5,-1.1 0.3,-1.6 -0.2,-0.6 -0.8,-0.9 -1.4,-0.9 -14.5,0 -30.8,24.8 -31.5,25.8 -0.2,0.2 -0.2,0.5 -0.2,0.8 v 0 c 0,0.3 0,0.6 0.2,0.8 0.7,1.1 16.9,25.8 31.5,25.8 14.6,0 1.2,-0.4 1.4,-0.9 v 0 z m -29.8,-25.8 c 2.6,-3.8 13.9,-19.6 24.5,-23 -5.9,7.7 -7.1,15.9 -7.3,23 0.2,7.1 1.4,15.2 7.3,22.9 -10.6,-3.4 -21.9,-19.2 -24.5,-23 z"
               id="path12853" />
            <path
               class="cls-96"
               d="m 1142.7,11928.5 c 0.2,-0.6 0.1,-1.2 -0.3,-1.6 -7.7,-7.9 -9,-16.3 -9.2,-24 0.3,-7.9 1.6,-16.2 9.2,-24.1 0.4,-0.4 0.5,-1.1 0.3,-1.6 -0.2,-0.6 -0.8,-0.9 -1.4,-0.9 -14.5,0 -30.8,24.8 -31.5,25.8 -0.2,0.2 -0.2,0.5 -0.2,0.8 v 0 c 0,0.3 0,0.6 0.2,0.8 0.7,1.1 16.9,25.8 31.5,25.8 0.6,0 1.2,-0.4 1.4,-0.9 v 0 z m -29.7,-25.8 c 2.6,-3.8 13.9,-19.6 24.5,-23 -5.9,7.7 -7.1,15.9 -7.3,23 0.2,7.1 1.4,15.2 7.3,22.9 -10.6,-3.4 -21.9,-19.2 -24.5,-23 z"
               id="path12855" />
          </g>
        </g>
        <g
           id="_x30_3_Arrow_Up-64"
           data-name="_x30_3_Arrow_Up">
          <g
             id="g12864">
            <path
               class="cls-96"
               d="m 1172.2,11928.5 c 0.2,-0.6 0.1,-1.2 -0.3,-1.6 -7.7,-7.9 -9,-16.3 -9.2,-24 0.3,-7.9 1.6,-16.2 9.2,-24.1 0.4,-0.4 0.5,-1.1 0.3,-1.6 -0.2,-0.6 -0.8,-0.9 -1.4,-0.9 -14.5,0 -30.8,24.8 -31.5,25.8 -0.2,0.2 -0.2,0.5 -0.2,0.8 v 0 c 0,0.3 0,0.6 0.2,0.8 0.7,1.1 16.9,25.8 31.5,25.8 14.6,0 1.2,-0.4 1.4,-0.9 v 0 z m -29.8,-25.8 c 2.6,-3.8 13.9,-19.6 24.5,-23 -5.9,7.7 -7.1,15.9 -7.3,23 0.2,7.1 1.4,15.2 7.3,22.9 -10.6,-3.4 -21.9,-19.2 -24.5,-23 z"
               id="path12860" />
            <path
               class="cls-96"
               d="m 1202.4,11928.5 c 0.2,-0.6 0.1,-1.2 -0.3,-1.6 -7.7,-7.9 -9,-16.3 -9.2,-24 0.3,-7.9 1.6,-16.2 9.2,-24.1 0.4,-0.4 0.5,-1.1 0.3,-1.6 -0.2,-0.6 -0.8,-0.9 -1.4,-0.9 -14.5,0 -30.8,24.8 -31.5,25.8 -0.2,0.2 -0.2,0.5 -0.2,0.8 v 0 c 0,0.3 0,0.6 0.2,0.8 0.7,1.1 16.9,25.8 31.5,25.8 0.6,0 1.2,-0.4 1.4,-0.9 v 0 z m -29.8,-25.8 c 2.6,-3.8 13.9,-19.6 24.5,-23 -5.9,7.7 -7.1,15.9 -7.3,23 0.2,7.1 1.4,15.2 7.3,22.9 -10.6,-3.4 -21.9,-19.2 -24.5,-23 z"
               id="path12862" />
          </g>
        </g>
      </g>
      <g
         id="g12897">
        <g
           id="_x30_3_Arrow_Up-65"
           data-name="_x30_3_Arrow_Up">
          <g
             id="g12873">
            <path
               class="cls-96"
               d="m 752.2,11928.5 c 0.2,-0.6 0.1,-1.2 -0.3,-1.6 -7.7,-7.9 -9,-16.3 -9.2,-24 0.3,-7.9 1.6,-16.2 9.2,-24.1 0.4,-0.4 0.5,-1.1 0.3,-1.6 -0.2,-0.6 -0.8,-0.9 -1.4,-0.9 -14.5,0 -30.8,24.8 -31.5,25.8 -0.2,0.2 -0.2,0.5 -0.2,0.8 v 0 c 0,0.3 0,0.6 0.2,0.8 0.7,1.1 16.9,25.8 31.5,25.8 14.6,0 1.2,-0.4 1.4,-0.9 v 0 z m -29.8,-25.8 c 2.6,-3.8 13.9,-19.6 24.5,-23 -5.9,7.7 -7.1,15.9 -7.3,23 0.2,7.1 1.4,15.2 7.3,22.9 -10.6,-3.4 -21.9,-19.2 -24.5,-23 z"
               id="path12869" />
            <path
               class="cls-96"
               d="m 782.4,11928.5 c 0.2,-0.6 0.1,-1.2 -0.3,-1.6 -7.7,-7.9 -9,-16.3 -9.2,-24 0.3,-7.9 1.6,-16.2 9.2,-24.1 0.4,-0.4 0.5,-1.1 0.3,-1.6 -0.2,-0.6 -0.8,-0.9 -1.4,-0.9 -14.5,0 -30.8,24.8 -31.5,25.8 -0.2,0.2 -0.2,0.5 -0.2,0.8 v 0 c 0,0.3 0,0.6 0.2,0.8 0.7,1.1 16.9,25.8 31.5,25.8 0.6,0 1.2,-0.4 1.4,-0.9 v 0 z m -29.8,-25.8 c 2.6,-3.8 13.9,-19.6 24.5,-23 -5.9,7.7 -7.1,15.9 -7.3,23 0.2,7.1 1.4,15.2 7.3,22.9 -10.6,-3.4 -21.9,-19.2 -24.5,-23 z"
               id="path12871" />
          </g>
        </g>
        <g
           id="_x30_3_Arrow_Up-66"
           data-name="_x30_3_Arrow_Up">
          <g
             id="g12880">
            <path
               class="cls-96"
               d="m 812.5,11928.5 c 0.2,-0.6 0.1,-1.2 -0.3,-1.6 -7.7,-7.9 -9,-16.3 -9.2,-24 0.3,-7.9 1.6,-16.2 9.2,-24.1 0.4,-0.4 0.5,-1.1 0.3,-1.6 -0.2,-0.6 -0.8,-0.9 -1.4,-0.9 -14.5,0 -30.8,24.8 -31.5,25.8 -0.2,0.2 -0.2,0.5 -0.2,0.8 v 0 c 0,0.3 0,0.6 0.2,0.8 0.7,1.1 16.9,25.8 31.5,25.8 14.6,0 1.2,-0.4 1.4,-0.9 v 0 z m -29.8,-25.8 c 2.6,-3.8 13.9,-19.6 24.5,-23 -5.9,7.7 -7.1,15.9 -7.3,23 0.2,7.1 1.4,15.2 7.3,22.9 -10.6,-3.4 -21.9,-19.2 -24.5,-23 z"
               id="path12876" />
            <path
               class="cls-96"
               d="m 842.7,11928.5 c 0.2,-0.6 0.1,-1.2 -0.3,-1.6 -7.7,-7.9 -9,-16.3 -9.2,-24 0.3,-7.9 1.6,-16.2 9.2,-24.1 0.4,-0.4 0.5,-1.1 0.3,-1.6 -0.2,-0.6 -0.8,-0.9 -1.4,-0.9 -14.5,0 -30.8,24.8 -31.5,25.8 -0.2,0.2 -0.2,0.5 -0.2,0.8 v 0 c 0,0.3 0,0.6 0.2,0.8 0.7,1.1 16.9,25.8 31.5,25.8 0.6,0 1.2,-0.4 1.4,-0.9 v 0 z m -29.8,-25.8 c 2.6,-3.8 13.9,-19.6 24.5,-23 -5.9,7.7 -7.1,15.9 -7.3,23 0.2,7.1 1.4,15.2 7.3,22.9 -10.6,-3.4 -21.9,-19.2 -24.5,-23 z"
               id="path12878" />
          </g>
        </g>
        <g
           id="_x30_3_Arrow_Up-67"
           data-name="_x30_3_Arrow_Up">
          <g
             id="g12887">
            <path
               class="cls-96"
               d="m 871.3,11928.5 c 0.2,-0.6 0.1,-1.2 -0.3,-1.6 -7.7,-7.9 -9,-16.3 -9.2,-24 0.3,-7.9 1.6,-16.2 9.2,-24.1 0.4,-0.4 0.5,-1.1 0.3,-1.6 -0.2,-0.6 -0.8,-0.9 -1.4,-0.9 -14.5,0 -30.8,24.8 -31.5,25.8 -0.2,0.2 -0.2,0.5 -0.2,0.8 v 0 c 0,0.3 0,0.6 0.2,0.8 0.7,1.1 16.9,25.8 31.5,25.8 14.6,0 1.2,-0.4 1.4,-0.9 v 0 z m -29.8,-25.8 c 2.6,-3.8 13.9,-19.6 24.5,-23 -5.9,7.7 -7.1,15.9 -7.3,23 0.2,7.1 1.4,15.2 7.3,22.9 -10.6,-3.4 -21.9,-19.2 -24.5,-23 z"
               id="path12883" />
            <path
               class="cls-96"
               d="m 901.5,11928.5 c 0.2,-0.6 0.1,-1.2 -0.3,-1.6 -7.7,-7.9 -9,-16.3 -9.2,-24 0.3,-7.9 1.6,-16.2 9.2,-24.1 0.4,-0.4 0.5,-1.1 0.3,-1.6 -0.2,-0.6 -0.8,-0.9 -1.4,-0.9 -14.5,0 -30.8,24.8 -31.5,25.8 -0.2,0.2 -0.2,0.5 -0.2,0.8 v 0 c 0,0.3 0,0.6 0.2,0.8 0.7,1.1 16.9,25.8 31.5,25.8 0.6,0 1.2,-0.4 1.4,-0.9 v 0 z m -29.8,-25.8 c 2.6,-3.8 13.9,-19.6 24.5,-23 -5.9,7.7 -7.1,15.9 -7.3,23 0.2,7.1 1.4,15.2 7.3,22.9 -10.6,-3.4 -21.9,-19.2 -24.5,-23 z"
               id="path12885" />
          </g>
        </g>
        <g
           id="_x30_3_Arrow_Up-68"
           data-name="_x30_3_Arrow_Up">
          <g
             id="g12894">
            <path
               class="cls-96"
               d="m 930.9,11928.5 c 0.2,-0.6 0.1,-1.2 -0.3,-1.6 -7.7,-7.9 -9,-16.3 -9.2,-24 0.3,-7.9 1.6,-16.2 9.2,-24.1 0.4,-0.4 0.5,-1.1 0.3,-1.6 -0.2,-0.6 -0.8,-0.9 -1.4,-0.9 -14.5,0 -30.8,24.8 -31.5,25.8 -0.2,0.2 -0.2,0.5 -0.2,0.8 v 0 c 0,0.3 0,0.6 0.2,0.8 0.7,1.1 16.9,25.8 31.5,25.8 14.6,0 1.2,-0.4 1.4,-0.9 v 0 z m -29.7,-25.8 c 2.6,-3.8 13.9,-19.6 24.5,-23 -5.9,7.7 -7.1,15.9 -7.3,23 0.2,7.1 1.4,15.2 7.3,22.9 -10.6,-3.4 -21.9,-19.2 -24.5,-23 z"
               id="path12890" />
            <path
               class="cls-96"
               d="m 961.1,11928.5 c 0.2,-0.6 0.1,-1.2 -0.3,-1.6 -7.7,-7.9 -9,-16.3 -9.2,-24 0.3,-7.9 1.6,-16.2 9.2,-24.1 0.4,-0.4 0.5,-1.1 0.3,-1.6 -0.2,-0.6 -0.8,-0.9 -1.4,-0.9 -14.5,0 -30.8,24.8 -31.5,25.8 -0.2,0.2 -0.2,0.5 -0.2,0.8 v 0 c 0,0.3 0,0.6 0.2,0.8 0.7,1.1 16.9,25.8 31.5,25.8 0.6,0 1.2,-0.4 1.4,-0.9 v 0 z m -29.7,-25.8 c 2.6,-3.8 13.9,-19.6 24.5,-23 -5.9,7.7 -7.1,15.9 -7.3,23 0.2,7.1 1.4,15.2 7.3,22.9 -10.6,-3.4 -21.9,-19.2 -24.5,-23 z"
               id="path12892" />
          </g>
        </g>
      </g>
    </g>
  </g>
</svg>
