<svg id="Warstwa_1" data-name="Warstwa 1" xmlns="http://www.w3.org/2000/svg" version="1.1" viewBox="0 0 198.2 217.3"><defs><style>.cls-2{stroke-width:0;fill:#fff}</style></defs><path d="M39.1 20.1c4-5.1 7.4-9.9 11.3-14.3 5-5.6 10.1-6.1 16.5-2.3 3.6 2.2 7.5 1.8 11.4.9 4.7-1 9.3-2.5 14.1-3.2 7.1-1.1 10.5.8 14.1 7.1.2.3.3.5.6.9 1.8-1.7 3.4-3.5 5.3-4.9 7.3-5.3 13.3-5.9 20.4-1.2 2.2 1.4 5.1 2.1 7.7 2.4 3.2.3 6.5-.2 9.7-.2 3.2 0 6.5 0 9.7.4 6.6.9 10.2 5 11 11.9 0 .7.1 1.5.2 2.3 2.7.6 5.2 1.1 7.8 1.7 13.8 3.2 20 11.3 19.2 25.5-.4 7.3-1.6 14.5-2.2 21.8-.3 3.1-.2 6.3.3 9.4 1.3 8.7-.9 16.1-8 21.4-6.6 5-9.4 11.5-9.3 19.7 0 3.1-.2 6.2-.4 9.2-.3 7.7-3.6 13.7-10.3 17.8-2.3 1.4-4.9 2.7-6.8 4.5-3.5 3.3-4.3 7.9-4.9 12.5-.6 4.3-1.1 8.6-2 12.8-1.5 6.7-5.5 11.7-11.6 14.8-3.7 1.9-7.5 3.6-11.2 5.4-4.9 2.4-8.3 6-9.2 11.6-.2 1.2-1.2 2.7-2.3 3.3-8.4 5-17.3 7.1-27 4.8-4.9-1.2-8.9-3.9-11.8-8.2-1-1.5-2.7-2.8-4.3-3.6-3.1-1.4-6.3-2.6-9.6-3.4-10.5-2.7-18-8.9-22.9-18.5-2-4-4-8-6-12.1-2.1-4.4-4.8-8.4-8.5-11.5-8.3-7-10.6-15.7-7.7-26 1.2-4.3 2.2-8.7 2.6-13.2.8-8.2-1.7-15.6-6.1-22.4-2.9-4.5-6.2-8.7-9.2-13C4.4 77 .8 68.9.1 59.6c-.5-6.1.5-11.9 3.7-17 3.1-5 4.9-10.2 4.9-16.2 0-5.5 2.6-9.6 7.6-11.9 5.1-2.3 10-2.1 14.6 1.2 2.7 1.9 5.2 4.3 8.2 4.3zm83.2 158.1c1.6 0 2.9.1 4.1 0 5.2-.6 8.4-4.2 11.1-8.1 3-4.3 5.7-8.8 8.5-13.2 3.1-4.9 7.1-8.7 12.3-11.4 2.9-1.5 5.6-3.2 8.3-5 3-1.9 5-4.7 5.4-8.3.5-3.9.9-7.8.9-11.7 0-10.3 3.1-18.9 11.6-25.2 4.8-3.5 7-8.4 6-14.4-1.2-6.9-.5-13.7.3-20.6.7-5.9 1.1-11.9 1-17.9-.1-6.9-3.8-11.5-10.3-13.3-4.9-1.4-10-2.8-15.1-3-16.7-.7-25.3 4.1-30.6 17-3.6 8.7-8.9 15.9-17 20.9-.9.6-1.7 1.3-2.5 2-3.1 2.6-4.9 5.9-5.2 9.9-.3 3.6-.5 7.3-.5 11 0 8.2-2.9 15-9.4 20.3-3.2 2.5-6.2 5.3-9.1 8.2-5.3 5.4-5.9 11.7-2.9 18.4 1.1 2.5 2.5 4.9 3.8 7.3 3 5.6 4.3 11 1.5 17.3-2.6 5.8-2.4 11.7 3.6 16 1.5 1.1 1.6 2.7.4 4.2-1.2 1.5-2.7 1.5-4.2.4-3.2-2.3-5.6-5.2-6.6-9.1-1.3-4.9-.7-9.7 1.4-14.1 1.7-3.8 1.2-7.2-.7-10.7-1.5-2.7-3-5.4-4.3-8.1-4.6-9.6-3.1-18.8 4.3-26.3 2.1-2.1 4.5-4 6.6-6.1.7-.7 1.5-2.1 1.3-2.9-.8-4-1.3-8.3-3-12-2.2-5.1-5.5-9.7-7.9-14.7-1.9-4.1-3.6-8.4-4.8-12.7-1.1-3.7-1.4-7.7-1.9-11.5-.8-6.2-2.5-12-5.7-17.4-2.9-5-7.2-7.5-13-7.3-2.9 0-5.8.4-8.7.7-8.6.8-16.9.6-24-5.5-3.3-2.8-8.2-2.4-10.6.8-1.4 1.8-2.2 4.6-2.2 6.9 0 6-1.9 11.2-5.1 16.1-2.9 4.5-3.8 9.5-3.4 14.8.7 8.1 3.9 15.2 8.6 21.7 2.6 3.6 5.4 7.2 7.9 10.9 6.4 9.5 10 19.9 8.1 31.6-.7 4.3-1.7 8.5-2.8 12.6-1.7 6.7-.2 12.5 5.1 17.2.7.6 1.3 1.3 2 1.9 3.9 3.4 6.7 7.6 8.9 12.2s4.4 9.1 6.8 13.6c3.5 6.4 8.6 11.2 15.7 13.4 7.1 2.2 14.6 3.5 20.1 9.7.4-2.7-1.2-3.5-2.6-4.5-13.1-9.1-22.5-21.1-27.1-36.5-1.1-3.7-3.2-6.4-6.2-8.4-2.1-1.4-4.5-2.6-6.8-3.6-1.9-.9-3.2-1.9-2.5-4.2.5-1.8 2.3-2.4 4.6-1.5 2.4 1 4.8 2.2 7.3 3.4v-1.3c-.7-7.5-1.9-15.1-1.9-22.6 0-6-2.9-9.8-7.1-13.2-1.3-1.1-2.8-2.1-4.3-3-2.2-1.5-2.9-3.1-1.7-4.7 1.4-1.9 3.1-1.6 4.8-.5 2.2 1.5 4.3 3 6.7 4.7v-1.4c-1-9.5-2.7-18.9-6.2-27.9-3.8-9.8-9.4-18.5-16.8-26-1.4-1.4-2.1-2.9-.7-4.6 1.3-1.6 2.9-1.3 4.5-.3C44.8 57.6 55.6 69.7 61 86c.2.5.4 1 .6 1.4 2.2-2.7 4.3-5.4 6.6-8 1.9-2.1 3.7-2.4 5.1-.9 1.3 1.3.8 2.9-.7 5-2.8 3.8-5.4 7.8-7.8 11.8-.6 1-.7 2.6-.5 3.8.4 4 1 7.9 1.4 11.9.3 3 .6 6.1.9 9.4 2.2-1.7 4.1-3.2 6-4.6 3.1-2.3 4.7-2.5 6-.6 1.2 1.8.6 3.2-2.3 5.4-2.6 2-5 4.2-7.6 6.1-1.4 1-1.7 2.3-1.5 3.9.6 4.9.9 9.8 1.6 14.6.7 4.6 2 9.2 3 13.8 1.2-1.4 1.7-2.8 2.5-4 .9-1.5 2.6-2 3.9-1 .9.7 1.1 2.3 1.4 3.6.1.4-.5 1-.7 1.6-1.7 5.8-2.5 11.3 1.9 16.6 5 5.9 10.5 11 16.9 15.4 2.3 1.6 4.4 3.5 6.9 5.6.4-1.4 1.2-3 1.4-4.7.8-8.7 2.6-17.2 5.7-25.5 4.2-11 10.4-21 16.6-30.9 1.1-1.8 1.4-3.3.5-5.1-1.8-3.5-3.5-6.9-5.4-10.4-.5-.9-1.1-1.7-1.6-2.5-1.6-2.6-1.6-4.3.2-5.4 1.7-1 3.3-.4 4.8 2.1 2.2 3.6 4.3 7.2 6.7 11.2 1.8-5.9 3-11.6 5.3-16.9 3-6.8.6-11.5-4.2-16-.5-.5-1-.9-1.4-1.4-1.9-1.9-2.1-3.6-.7-5 1.4-1.4 3-1.3 5 .7 1.9 1.9 3.7 3.9 5.7 6 .8-2.4 1.4-4.5 2.2-6.6.8-2.2 1.2-4.6 2.4-6.5 3.4-5.5 2.3-10-2.2-14.3-1.5-1.4-1.7-3.2 0-4.6 1.7-1.4 3.3-.8 4.6.8 1.2 1.4 2.3 2.9 3.5 4.4 2.7-3.7 5.1-7.7 8.1-11.1 4.3-4.8 9.2-9.2 13.8-13.7 1.4-1.3 3-1.5 4.4 0 1.4 1.5 1 3-.3 4.4-.4.4-.8.9-1.1 1.3-7.1 8.4-13.3 17.4-17.5 27.7-2.6 6.5-4.3 13.3-5 20.6 2.9-1.4 5.4-2.7 8.1-3.8 2.2-.9 4.1-.3 4.6 1.4.6 2-.4 3.2-2.2 4.1-3.1 1.5-6.1 3.3-9.2 4.9-1.9 1-2.5 2.5-2.9 4.5-.7 4.3-1.4 8.5-2.5 12.7-1.1 4.2-2.6 8.3-4.1 12.8 2.8-.9 5.4-1.8 7.9-2.6 1.9-.6 3.6-.4 4.3 1.8.7 2.1-.5 3.3-2.4 3.9-.6.2-1.1.3-1.7.5-3.9 1.5-7.8 2.9-11.6 4.5-.8.4-1.7 1.1-2.2 1.9-3.6 5.6-7.1 11.2-10.6 16.9-3.7 6-7.2 12.2-9.4 19.5zM46.6 19.6l.5.8c2-.1 4-.3 5.9-.4 2.7-.2 5.5-.4 8.2-.4 7.4 0 12.7 3.5 16.4 9.5 1.3 2.1 2.4 4.4 3.6 6.6.2 0 .4-.1.6-.2-.7-3.5-1.3-7-2.1-10.4-.5-2-.1-3.6 1.9-4.2 2-.6 3.4.5 3.9 2.5.6 2.2 1.4 4.5 1.5 6.8.2 7.9.2 15.8.2 23.7v6.3c.8-.7 1.1-1 1.4-1.3 3.1-2.3 6.1-4.6 9.2-6.8 1.5-1 3.1-.8 4.1.8 1.1 1.6.6 3-.9 4.1-.7.6-1.6 1-2.3 1.6-2.8 2.4-5.6 4.7-8.2 7.2-1.5 1.4-1.6 3-.5 5.1 4.7 8.2 10.2 16 12.3 25.7.9-2.7 1.7-5.4 2-8.1.3-2.7.4-5.5.3-8.2-.3-9.9 3.9-17.3 12.2-22.5 6.1-3.8 10.1-9.3 12.8-15.8.5-1.1.7-2.6.4-3.8-2.2-8.3-7.8-13.2-16.1-14.7-5.2-.9-8.9-3.5-11.1-8.2-.8-1.7-1.6-3.3-2.5-4.9-1.6-2.9-3.4-3.8-6.6-3.2-4.3.9-8.6 2-12.8 3-6.4 1.5-12.6 1.9-18.5-2-2.2-1.5-4.8-1.3-6.6.7-3.2 3.5-6.3 7.2-9.4 10.9zm63.9-4c4.8 1.8 9.7 3.2 14.1 5.4 4.7 2.3 7.8 6.5 10.2 11.4 7.5-10.4 18.4-12.5 30-12.8-.2-5.3-2-7.6-7-7.9-4.1-.3-8.3 0-12.4.2-6.5.3-12.5-.6-18-4.4-1.5-1-4.1-1.4-5.9-1-5 1.2-8.6 4.5-11.1 9.2zm-12 185 .6-.8c-1.1-1.1-2.1-2.4-3.4-3.2-20-12.3-30.6-30.4-33-53.5-1.2-11.7-1.9-23.4-3.1-35-1.2-11.4-4-22.4-9.8-32.4-.4-.7-.9-1.3-1.3-2 .3 2.1 1 4 1.7 5.8 4.4 12.5 5.5 25.6 6.5 38.7.8 10.6 1.5 21.2 3.1 31.7 2.6 17.5 10.7 32.2 25.1 43 3.3 2.5 7.2 4.3 7.9 9 2.2-.5 4-.9 5.7-1.3zM150 91.1c-1.5 5.2-3.1 10.3-4.5 15.5-3.7 14.3-8.5 28.2-17.3 40.3-1.2 1.6-2 3.4-3 5.1-6.2 10.6-10.7 21.8-12.5 33.9-.7 4.9-.1 10-3.4 14.5 1 0 2-.1 2.3-.6.8-1.5 1.8-3.1 1.9-4.7.4-7.4 1.5-14.7 4.1-21.7 3.5-9.5 8.8-18.1 14.5-26.4 11.7-16.8 17.2-35.6 17.9-56zm-30.9 108.7c3.2-4.9 7.4-7.3 11.9-9.4 3.2-1.5 6.5-3 9.6-4.8 4.4-2.4 7.3-6.2 8.3-11 .9-4.4 1.4-9 2.1-13.5-.2 0-.3 0-.5-.1-.4.5-.7 1.1-1.1 1.6-3.1 4.7-6 9.6-9.5 14-4.4 5.5-10.2 8.5-17.5 7.5-.5 0-1.1 0-1.9.1-.5 5.1-.9 10-1.4 15.6zm-27.9 9c4.9 4.2 18.4 2.4 22.2-.8-7.5-3.4-14.7-1.5-22.2.8z" style="stroke-width:0;fill:#000"/><path class="cls-2" d="M122.3 178.2c2.2-7.4 5.7-13.5 9.4-19.5 3.5-5.7 7-11.3 10.6-16.9.5-.8 1.3-1.5 2.2-1.9 3.8-1.6 7.7-3 11.6-4.5.5-.2 1.1-.4 1.7-.5 1.9-.6 3.1-1.8 2.4-3.9-.7-2.1-2.4-2.3-4.3-1.8-2.6.8-5.1 1.7-7.9 2.6 1.5-4.5 3-8.6 4.1-12.8 1.1-4.2 1.8-8.4 2.5-12.7.3-2 .9-3.6 2.9-4.5 3.1-1.6 6.1-3.4 9.2-4.9 1.8-.9 2.8-2.1 2.2-4.1-.5-1.7-2.4-2.4-4.6-1.4-2.6 1.1-5.2 2.5-8.1 3.8.7-7.2 2.4-14 5-20.6 4.2-10.3 10.4-19.3 17.5-27.7.4-.4.7-.9 1.1-1.3 1.3-1.4 1.7-2.9.3-4.4-1.4-1.5-3-1.3-4.4 0-4.6 4.5-9.5 8.9-13.8 13.7-3 3.4-5.4 7.3-8.1 11.1-1.2-1.4-2.3-2.9-3.5-4.4-1.3-1.5-2.9-2.2-4.6-.8-1.7 1.4-1.5 3.2 0 4.6 4.4 4.2 5.6 8.8 2.2 14.3-1.2 1.9-1.7 4.3-2.4 6.5-.7 2.1-1.4 4.3-2.2 6.6-2-2.1-3.8-4.1-5.7-6-2-1.9-3.6-2.1-5-.7-1.4 1.4-1.1 3.1.7 5l1.4 1.4c4.8 4.4 7.2 9.2 4.2 16-2.3 5.3-3.5 11-5.3 16.9-2.4-4-4.5-7.6-6.7-11.2-1.5-2.5-3.1-3.1-4.8-2.1-1.8 1.1-1.9 2.8-.2 5.4.5.8 1.1 1.7 1.6 2.5 1.8 3.5 3.6 6.9 5.4 10.4.9 1.8.6 3.3-.5 5.1-6.2 9.9-12.4 19.9-16.6 30.9-3.1 8.2-4.9 16.7-5.7 25.5-.2 1.7-1 3.4-1.4 4.7-2.5-2-4.6-4-6.9-5.6-6.4-4.3-11.9-9.5-16.9-15.4-4.4-5.3-3.6-10.8-1.9-16.6.2-.6.8-1.1.7-1.6-.3-1.3-.5-2.9-1.4-3.6-1.3-1-2.9-.5-3.9 1-.8 1.2-1.3 2.6-2.5 4-1-4.6-2.2-9.1-3-13.8-.8-4.8-1.1-9.7-1.6-14.6-.2-1.6.2-2.8 1.5-3.9 2.6-2 5-4.1 7.6-6.1 2.9-2.2 3.6-3.6 2.3-5.4-1.3-1.9-2.9-1.7-6 .6-1.9 1.4-3.8 2.9-6 4.6-.3-3.3-.5-6.4-.9-9.4-.4-4-1-7.9-1.4-11.9-.1-1.3 0-2.8.5-3.8 2.4-4 5-8 7.8-11.8 1.5-2.1 2-3.7.7-5-1.4-1.4-3.3-1.2-5.1.9-2.2 2.5-4.3 5.2-6.6 8-.2-.4-.5-.9-.6-1.4-5.4-16.4-16.2-28.4-30.6-37.4-1.6-1-3.2-1.3-4.5.3-1.4 1.7-.7 3.2.7 4.6 7.4 7.5 13 16.2 16.8 26 3.5 9 5.1 18.4 6.2 27.9v1.4c-2.4-1.7-4.5-3.2-6.7-4.7-1.7-1.2-3.4-1.4-4.8.5-1.2 1.6-.5 3.2 1.7 4.7 1.5 1 2.9 1.9 4.3 3 4.2 3.4 7 7.2 7.1 13.2 0 7.5 1.2 15.1 1.9 22.6v1.3c-2.5-1.2-4.8-2.4-7.3-3.4-2.2-.9-4-.3-4.6 1.5-.7 2.2.6 3.3 2.5 4.2 2.3 1.1 4.6 2.2 6.8 3.6 3 2 5.1 4.6 6.2 8.4 4.6 15.4 14 27.4 27.1 36.5 1.4 1 3 1.8 2.6 4.5-5.5-6.2-13-7.5-20.1-9.7-7.1-2.2-12.2-7-15.7-13.4-2.4-4.4-4.6-9-6.8-13.6s-5-8.8-8.9-12.2c-.7-.6-1.3-1.3-2-1.9-5.3-4.6-6.8-10.4-5.1-17.2 1-4.2 2.1-8.4 2.8-12.6 1.9-11.7-1.7-22-8.1-31.6-2.5-3.7-5.3-7.3-7.9-10.9-4.7-6.5-7.9-13.6-8.6-21.7-.5-5.3.5-10.3 3.4-14.8 3.2-4.9 5.1-10.1 5.1-16.1 0-2.3.8-5 2.2-6.9 2.4-3.2 7.3-3.6 10.6-.8 7.1 6.1 15.4 6.4 24 5.5 2.9-.3 5.8-.6 8.7-.7 5.8-.2 10.1 2.3 13 7.3 3.2 5.4 4.9 11.2 5.7 17.4.5 3.9.9 7.8 1.9 11.5 1.2 4.4 2.9 8.7 4.8 12.7 2.4 5 5.7 9.6 7.9 14.7 1.6 3.7 2.2 7.9 3 12 .2.9-.6 2.2-1.3 2.9-2.1 2.1-4.5 4-6.6 6.1-7.5 7.5-9 16.7-4.3 26.3 1.3 2.8 2.9 5.4 4.3 8.1 1.9 3.5 2.4 6.9.7 10.7-2 4.5-2.7 9.3-1.4 14.1 1 3.9 3.4 6.8 6.6 9.1 1.5 1.1 3 1.1 4.2-.4 1.2-1.4 1-3.1-.4-4.2-6-4.3-6.2-10.2-3.6-16 2.8-6.3 1.6-11.8-1.5-17.3-1.3-2.4-2.7-4.8-3.8-7.3-2.9-6.7-2.4-13 2.9-18.4 2.8-2.9 5.9-5.7 9.1-8.2 6.5-5.2 9.3-12.1 9.4-20.3 0-3.7.2-7.3.5-11 .3-4 2.1-7.3 5.2-9.9.8-.7 1.6-1.5 2.5-2 8.1-5 13.5-12.1 17-20.9 5.3-12.9 13.9-17.7 30.6-17 5.1.2 10.2 1.7 15.1 3 6.6 1.8 10.2 6.4 10.3 13.3.1 6-.3 12-1 17.9-.8 6.9-1.5 13.7-.3 20.6 1 6-1.2 10.9-6 14.4-8.5 6.3-11.6 15-11.6 25.2 0 3.9-.4 7.8-.9 11.7-.4 3.6-2.4 6.4-5.4 8.3-2.7 1.8-5.5 3.5-8.3 5-5.1 2.7-9.2 6.5-12.3 11.4-2.8 4.4-5.5 8.9-8.5 13.2-2.7 3.9-5.9 7.5-11.1 8.1-1.2.1-2.4 0-4.1 0z"/><path class="cls-2" d="M46.6 19.6c3.1-3.6 6.1-7.4 9.4-10.9 1.9-2 4.4-2.2 6.6-.7 5.9 3.9 12.1 3.5 18.5 2 4.3-1 8.5-2.1 12.8-3 3.2-.6 5 .3 6.6 3.2.9 1.6 1.7 3.2 2.5 4.9 2.2 4.7 5.9 7.3 11.1 8.2 8.3 1.5 13.9 6.4 16.1 14.7.3 1.2 0 2.7-.4 3.8-2.7 6.5-6.7 12-12.8 15.8-8.3 5.2-12.5 12.6-12.2 22.5 0 2.7 0 5.5-.3 8.2-.3 2.7-1.1 5.4-2 8.1-2.1-9.6-7.6-17.5-12.3-25.7-1.2-2-1.1-3.6.5-5.1 2.7-2.5 5.5-4.8 8.2-7.2.7-.6 1.5-1 2.3-1.6 1.4-1.1 2-2.5.9-4.1-1.1-1.6-2.7-1.8-4.1-.8-3.1 2.2-6.1 4.5-9.2 6.8-.3.2-.6.5-1.4 1.3v-6.3c0-7.9 0-15.8-.2-23.7 0-2.3-.9-4.5-1.5-6.8-.5-2-1.8-3.1-3.9-2.5-2 .6-2.4 2.2-1.9 4.2.8 3.5 1.4 7 2.1 10.4-.2 0-.4.1-.6.2-1.2-2.2-2.3-4.4-3.6-6.6-3.8-6.1-9.1-9.6-16.4-9.5-2.7 0-5.5.2-8.2.4-2 .1-4 .3-5.9.4l-.5-.8zM110.5 15.6c2.6-4.7 6.1-7.9 11.1-9.2 1.8-.4 4.4 0 5.9 1 5.5 3.8 11.5 4.7 18 4.4 4.1-.2 8.3-.4 12.4-.2 4.9.3 6.8 2.6 7 7.9-11.5.4-22.4 2.4-30 12.8-2.4-4.9-5.6-9-10.2-11.4-4.4-2.2-9.3-3.6-14.1-5.4zM98.5 200.6c-1.8.4-3.5.8-5.7 1.3-.7-4.6-4.6-6.5-7.9-9-14.4-10.8-22.4-25.5-25.1-43-1.6-10.5-2.3-21.1-3.1-31.7-1-13.1-2.1-26.2-6.5-38.7-.7-1.9-1.4-3.7-1.7-5.8.4.7.9 1.3 1.3 2 5.8 10 8.6 21 9.8 32.4 1.2 11.7 1.9 23.4 3.1 35 2.3 23.1 12.9 41.2 33 53.5 1.3.8 2.3 2.1 3.4 3.2l-.6.8zM150 91.1c-.7 20.4-6.2 39.1-17.9 56-5.7 8.3-11.1 16.8-14.5 26.4-2.5 7-3.7 14.3-4.1 21.7 0 1.6-1.1 3.2-1.9 4.7-.3.5-1.3.6-2.3.6 3.3-4.5 2.7-9.7 3.4-14.5 1.8-12.2 6.3-23.4 12.5-33.9 1-1.7 1.9-3.5 3-5.1 8.8-12.1 13.6-26 17.3-40.3 1.3-5.2 3-10.3 4.5-15.5zM119.1 199.8c.5-5.6.9-10.5 1.4-15.6.8 0 1.4-.2 1.9-.1 7.3 1 13.1-1.9 17.5-7.5 3.5-4.4 6.4-9.3 9.5-14 .4-.5.7-1.1 1.1-1.6.2 0 .3 0 .5.1-.7 4.5-1.2 9-2.1 13.5-1 4.9-3.9 8.6-8.3 11-3.1 1.7-6.3 3.3-9.6 4.8-4.5 2.1-8.7 4.6-11.9 9.4zM91.2 208.8c7.4-2.3 14.6-4.1 22.2-.8-3.7 3.1-17.3 4.9-22.2.8z"/></svg>