<svg id="Warstwa_1" data-name="Warstwa 1" xmlns="http://www.w3.org/2000/svg" version="1.1" viewBox="0 0 291 240.5"><defs><style>.cls-1,.cls-2{fill:#000;stroke-width:0}.cls-2{fill:#fff}</style></defs><path class="cls-1" d="M231.5 118.8c15.8-.7 28.6-6.8 39.3-17.9.2-.2.4-.4.6-.7 4.9-5.4 6.9-5.1 10.2 1.5 6.5 13.1 10.5 26.8 9.2 41.5-1.3 14.2-7.7 25.9-18.5 35.1-2.6 2.2-5.5 1.7-6.8-1.3-6.1-14.6-18.4-22.6-31.7-30.5.1 3.8.3 7 .3 10.3 0 18.9-3.3 37.1-14 53.2-11.4 17.1-27 27.9-48.1 29.4-12.6.9-24.1-3-34.9-9.1-12.8-7.3-23.7-17-32.8-28.5-2.5-3.2-5.5-4-9.4-4.3.8 1.7 1.4 3.1 2 4.5 4 8.5 3.6 16.8-1.1 24.9-2 3.4-4.1 6.7-6.2 10-3 4.7-8.2 4.7-11.4.1-6.2-9.2-8.5-19.6-9.5-30.4-.5-5.1-.3-10.2-.5-15.3 0-.9-.5-2.2-1.2-2.6-7.5-4.1-14.9-8.3-22.6-12.1-8.1-3.9-16.6-6-25.7-6-5.5 0-9-2.7-11.2-7.6-.5-1.1-1.7-2.2-2.9-2.8-3-1.4-4.9-4.4-4.4-7.6.5-3.3 3.4-5.7 6.8-5.8 11.1-.3 14.7-2.8 18.2-13.5 5-15.2 10.9-30 19.8-43.3 5.1-7.7 11-14.6 17.9-20.7 1.1-1 2.1-2.3 2.9-3.6C76.4 46.9 89.3 30 106.5 16.8 120.1 6.4 135.1-.3 152.5 0c24.3.5 43 11.4 56.7 31.1 11.3 16.3 17 34.8 19.6 54.2 1.4 10.5 1.7 21.2 2.5 31.7 0 .5 0 1 .1 1.8zM13.3 160.9c1.1 3 2.1 3.8 5 3.8 14.3 0 26.9 5.2 39.1 11.9 4.8 2.6 9.5 5.8 14.6 7.7 24.5 9.5 49.9 12.9 76 9.6 31.7-3.9 57.5-18.1 76.2-44.4 1.9-2.7 2.9-5.5 2.8-8.8-.2-4.4-.1-8.9-.4-13.3-.1-1.7-.5-3.6-1.3-5.1-22-40.8-55.3-64.8-102.5-67.2-22.5-1.1-42.3 5.6-58.9 21.3-11.4 10.8-19.5 23.9-25.5 38.3-3.3 8-5.9 16.3-9.1 24.3-3.8 9.5-10.7 14-20.8 13.9-.8 0-1.7.3-2.5.4v1c1 .2 1.9.4 2.9.5 4.1.3 8.3.5 12.4.7 2.2.1 3.8.9 3.6 3.3-.2 2.4-2 2.8-4.2 2.6-2.4-.2-4.8-.3-7.4-.4zM171.7 9.6V8.4c-6.1-.8-12.2-1.7-18.3-2.5-2.1-.3-3.3.5-4.4 2.4-7 12.7-14.3 25.4-21.4 38-.5.8-.8 1.7-1.4 2.8 3.8.4 7.3.6 10.8 1.3 2 .4 3.2 0 4.4-1.7 9.6-12.4 19.2-24.7 28.8-37l1.5-2.1zM146.3 52c2.9.8 5.4 1.3 7.7 2.2 1.8.7 3 .4 4.4-1 10.3-10 20.7-19.9 31.1-29.8.8-.8 1.6-1.6 2.8-2.9-5-3.2-9.6-6.1-14.3-9.1-10.7 13.8-21.1 27.1-31.7 40.7zM74 191.6c.2 15.2.9 29.8 9.9 43.3 2.9-4.8 5.9-8.8 7.8-13.3 1.4-3.3 2.2-7.4 1.5-10.8-1.1-5.1-3.7-9.8-5.8-14.7-.2-.5-1.1-.8-1.7-1-3.6-1.2-7.3-2.3-11.6-3.6zM142.8 7c-.1-.2-.3-.5-.4-.7-4.6 1.4-9.2 2.7-13.6 4.4-1.3.5-2.6 1.7-3.3 3-6.2 11.2-12.3 22.4-18.4 33.7-.4.7-.7 1.5-1.1 2.5 3.8-.3 7.3-.7 10.7-.7 2 0 2.9-.7 3.9-2.4 6.9-12.5 14-24.9 21-37.3.5-.8.9-1.7 1.3-2.5zm20.3 49.9c4 2.7 7.3 3.1 11.4.3 9.5-6.3 19.4-12 29.2-17.9.9-.5 1.7-1.1 3-1.9-3.4-4.4-6.6-8.4-9.9-12.7-11.4 10.9-22.4 21.5-33.6 32.2zm17.4 134.9c-3.2 1.2-6.3 2.3-9.7 3.5 6.6 11.3 13 22.3 19.8 33.7 4.3-2.8 8.4-5.4 12.6-8.1-7.8-10-15.2-19.5-22.7-29.1zm-26 7.4c5.9 11.4 11.6 22.4 17.3 33.3.3.5 1.3 1.1 1.8 1 3.6-.6 7.3-1.3 11.4-2.1-7-11.9-13.5-23.1-20.2-34.4-3.4.7-6.6 1.4-10.4 2.2zm-15.6 1.7v1c3.5 8.9 7.1 17.9 10.7 26.8.2.5.5 1.2.9 1.4 4.7 1.9 9.5 3.1 15 3.4-4.6-8.9-8.9-17.2-13.3-25.6-1.4-2.6-2.2-6.3-4.4-7.4-2.3-1.2-5.9.2-9.1.4zm68.7 16.1c3.1-4 5.9-7.6 8.8-11.4-5.6-5.2-10.9-10.2-16.2-15.1q-5.9-5.6-13.1-1.7c-.3.1-.5.4-.9.7 7 9 14 17.9 21.4 27.5zm2-174.3c-11.3 6.8-22.2 13.5-33.5 20.3 1.3.8 2.2 1.2 3 1.9 2.3 1.9 4.5 1.8 7.2.6 7-3.1 14.2-5.8 21.3-8.6 2.3-.9 4.6-1.9 7.2-3-1.8-3.9-3.5-7.4-5.2-11.2zm75.9 94.7c-.9-5.9-1.7-11.1-2.5-16.7-14.5 6.5-29.1 8.7-44 10 15.3 2.2 30.5 4.4 46.5 6.6zM116.3 17.6c-.6.2-.9.1-1.1.3-6.6 5.7-13.3 11.3-19.9 17-.4.3-.7.8-.8 1.2-1.8 5.8-3.5 11.6-5.4 17.8 2.5-.7 4.7-1.2 6.8-2 1.2-.5 2.6-1.4 3.2-2.5 5.5-9.9 10.9-19.8 16.3-29.8.3-.6.5-1.2.9-2zm161.6 146c-12.2-10.9-25.6-18.2-40.9-22.2 13.3 7.8 25.7 16.6 33.2 31.3 2.7-3.2 5.1-6 7.7-9.1zm-61.1-104c-9.5 3.8-18.6 7.5-28.1 11.3 2.2 1.7 4 3.1 5.8 4.4.7.5 1.7.9 2.4.7 7.6-1.8 15.2-3.7 23.1-5.6-1.1-3.8-2.1-7.2-3.2-10.8zm31.9 78.5c11.6 5.1 22.2 11.6 32.3 20.3 1.5-5.3 2.7-10.1 4.1-15.1-12.6-1.8-24.5-3.5-36.5-5.2zm-48.9 43.8c6.5 6.1 12.9 12 19.6 18.3 1.5-3.8 2.7-7.2 4.1-10.5.7-1.7.1-2.6-1.5-3.4-3.6-1.8-7.1-3.8-10.6-5.7q-5.9-3.2-11.5 1.5zm44.2-58.3c12.8-.9 25.2-2.9 37-8.7-1.7-3.8-3.2-7.2-4.8-11-9.2 9.8-19.7 16.4-32.2 19.6zM141.6 226.3c.2-.2.3-.4.5-.6-3.1-7.7-6.1-15.3-9.2-22.9-.3-.7-1.2-1.6-1.9-1.7-1.9-.2-3.8 0-6.1 0 2.2 6.2 4.3 12.1 6.4 17.9.2.5.6 1 1.1 1.3l9.3 6zm81.5-140.9c-.6-3.3-1.2-6.1-1.7-9.2-6.7 1.7-13.1 3.2-19.8 4.9 2 1.9 3.5 3.5 5.2 5 .5.5 1.4.9 2 .8 4.7-.4 9.3-1 14.4-1.6zM211 173.5c4.8 2.6 9.6 5.2 14.7 8 .6-4.1 1.2-7.8 1.8-11.8-2.7-.2-5 0-7.2-.5-4.2-.9-6.9.9-9.4 4.3zm1.9-80.9c4.2 5.7 8.1 11 12.6 17.1-.6-6.6-1-12.4-1.5-18.4-3.9.4-7.3.8-11 1.3zM121.7 212l.5-.3c-1.2-3.4-2.4-6.8-3.6-10.1-.1-.4-.6-.8-1-.8-2.2-.2-4.3-.3-7.4-.5 4.3 4.4 7.9 8.1 11.5 11.8zm99.4-48.8c2.5.1 4.6.3 6.9.4V155c-.6.4-.9.5-1 .7-1.9 2.4-3.8 4.7-5.9 7.4zM76.5 59.3c5.5-1.9 7.5-4.9 7.2-10.6-2.4 3.5-4.6 6.7-7.2 10.6z"/><path class="cls-2" d="M13.3 160.9c2.5.1 4.9.2 7.4.4 2.1.2 3.9-.3 4.2-2.6.2-2.4-1.4-3.2-3.6-3.3-4.1-.2-8.3-.4-12.4-.7-1 0-1.9-.3-2.9-.5v-1c.8-.1 1.7-.4 2.5-.4 10.1 0 17-4.4 20.8-13.9 3.2-8 5.8-16.3 9.1-24.3 6-14.4 14.1-27.5 25.5-38.3 16.5-15.6 36.4-22.4 58.9-21.3 47.2 2.3 80.4 26.3 102.5 67.2.8 1.5 1.2 3.3 1.3 5.1.3 4.4.2 8.9.4 13.3.1 3.3-.9 6.1-2.8 8.8-18.7 26.3-44.6 40.5-76.2 44.4-26.1 3.2-51.5-.1-76-9.6-5.1-2-9.7-5.1-14.6-7.7-12.2-6.7-24.8-12-39.1-11.9-2.9 0-3.9-.9-5-3.8zm134.1-13.7c.5-8.8-.9-17.6-3.9-26.3-1.4-4.1-4.4-5.6-8.3-4-9.9 3.9-19.7 7.9-29.5 11.9-3.9 1.6-5.1 4.4-3.5 8.3 2.6 6.2 2.5 12.2-.4 18.3-1.8 3.9-1.1 6.4 2.5 8.8 7 4.7 14 9.4 21.1 14.1 4.1 2.7 6.5 2.5 9.8-1.1 7.8-8.3 11.6-18.3 12.2-30zm-82.9-11.1c7 .4 12.9-4.8 13.3-11.8.4-7-4.9-12.8-11.9-13.2-6.9-.4-12.9 5-13.2 11.9-.3 6.8 5 12.6 11.8 13zM171.7 9.6l-1.5 2.1c-9.6 12.3-19.3 24.6-28.8 37-1.3 1.6-2.4 2.1-4.4 1.7-3.4-.6-7-.8-10.8-1.3.6-1.1.9-2 1.4-2.8 7.1-12.7 14.3-25.3 21.4-38 1.1-1.9 2.3-2.7 4.4-2.4 6.1.9 12.2 1.7 18.3 2.5v1.2zM146.3 52c10.6-13.6 21-26.9 31.7-40.7 4.7 3 9.4 6 14.3 9.1-1.2 1.3-2 2.1-2.8 2.9-10.4 9.9-20.8 19.8-31.1 29.8-1.4 1.4-2.6 1.7-4.4 1-2.4-.9-4.8-1.4-7.7-2.2zM74 191.6c4.3 1.3 8 2.4 11.6 3.6.6.2 1.5.5 1.7 1 2.1 4.8 4.7 9.6 5.8 14.7.7 3.4-.1 7.5-1.5 10.8-1.9 4.5-4.9 8.5-7.8 13.3-9-13.5-9.6-28.2-9.9-43.3zM142.8 7c-.4.8-.8 1.7-1.3 2.5-7 12.4-14.1 24.8-21 37.3-.9 1.7-1.9 2.4-3.9 2.4-3.4 0-6.8.4-10.7.7.5-1 .8-1.8 1.1-2.5 6.1-11.2 12.2-22.5 18.4-33.7.7-1.2 2-2.5 3.3-3 4.5-1.6 9.1-3 13.6-4.4.1.2.3.5.4.7zM163.1 56.9c11.2-10.7 22.2-21.3 33.6-32.2 3.3 4.3 6.5 8.3 9.9 12.7-1.2.8-2.1 1.4-3 1.9-9.8 5.9-19.7 11.6-29.2 17.9-4.2 2.8-7.4 2.4-11.4-.3zM180.5 191.8c7.5 9.6 14.9 19.1 22.7 29.1-4.2 2.7-8.3 5.3-12.6 8.1-6.7-11.5-13.1-22.4-19.8-33.7 3.4-1.2 6.4-2.3 9.7-3.5zM154.5 199.2c3.7-.8 7-1.5 10.4-2.2 6.6 11.3 13.2 22.6 20.2 34.4-4.1.8-7.7 1.5-11.4 2.1-.6 0-1.6-.4-1.8-1-5.8-11-11.4-21.9-17.3-33.3zM138.9 200.9c3.3-.3 6.8-1.6 9.1-.4 2.2 1.1 3 4.8 4.4 7.4 4.3 8.4 8.7 16.7 13.3 25.6-5.5-.3-10.3-1.5-15-3.4-.4-.2-.7-.9-.9-1.4-3.6-8.9-7.1-17.9-10.7-26.8-.1-.3 0-.6 0-1zM207.6 217c-7.4-9.5-14.4-18.5-21.4-27.5.4-.3.6-.6.9-.7q7.1-3.9 13.1 1.7c5.3 5 10.6 9.9 16.2 15.1-2.9 3.7-5.7 7.3-8.8 11.4zM209.6 42.7c1.8 3.8 3.4 7.3 5.2 11.2-2.5 1-4.8 2-7.2 3-7.1 2.9-14.3 5.5-21.3 8.6-2.7 1.2-4.9 1.3-7.2-.6-.8-.7-1.8-1.1-3-1.9 11.3-6.8 22.2-13.5 33.5-20.3zM285.5 137.4c-16-2.3-31.3-4.5-46.5-6.6 14.9-1.4 29.5-3.6 44-10 .8 5.5 1.6 10.8 2.5 16.7zM116.3 17.6c-.4.9-.6 1.5-.9 2-5.4 9.9-10.7 19.9-16.3 29.8-.6 1.1-2 2-3.2 2.5-2 .8-4.2 1.3-6.8 2 1.9-6.2 3.6-12 5.4-17.8.1-.4.4-.9.8-1.2 6.6-5.7 13.3-11.4 19.9-17 .2-.1.5-.1 1.1-.3zM277.9 163.6c-2.7 3.1-5.1 5.9-7.7 9.1-7.4-14.7-19.9-23.5-33.2-31.3 15.3 4 28.7 11.4 40.9 22.2zM216.8 59.6c1.1 3.7 2.1 7.1 3.2 10.8-7.9 1.9-15.5 3.8-23.1 5.6-.7.2-1.7-.3-2.4-.7-1.9-1.3-3.6-2.7-5.8-4.4 9.4-3.8 18.6-7.5 28.1-11.3zM248.7 138.1c11.9 1.7 23.9 3.4 36.5 5.2-1.4 5-2.7 9.8-4.1 15.1-10.1-8.7-20.7-15.2-32.3-20.3zM199.8 181.9q5.6-4.7 11.5-1.5c3.5 1.9 7 3.9 10.6 5.7 1.6.8 2.2 1.7 1.5 3.4-1.4 3.4-2.6 6.8-4.1 10.5-6.7-6.2-13.1-12.2-19.6-18.3zM244 123.6c12.5-3.3 23-9.8 32.2-19.6 1.7 3.8 3.2 7.2 4.8 11-11.8 5.7-24.3 7.8-37 8.7zM141.6 226.3l-9.3-6c-.5-.3-.9-.8-1.1-1.3-2.1-5.8-4.1-11.6-6.4-17.9 2.3 0 4.2-.2 6.1 0 .7 0 1.6 1 1.9 1.7 3.1 7.6 6.2 15.3 9.2 22.9-.2.2-.3.4-.5.6zM223.1 85.4c-5 .6-9.7 1.1-14.4 1.6-.6 0-1.5-.4-2-.8-1.7-1.5-3.2-3.1-5.2-5 6.8-1.7 13.1-3.2 19.8-4.9.6 3.1 1.1 5.9 1.7 9.2zM211 173.5c2.4-3.4 5.2-5.2 9.4-4.3 2.2.5 4.5.3 7.2.5-.6 4-1.2 7.7-1.8 11.8-5.1-2.8-9.9-5.4-14.7-8zM212.9 92.6c3.7-.4 7.2-.8 11-1.3.5 6 1 11.8 1.5 18.4-4.5-6.1-8.4-11.4-12.6-17.1zM121.7 212c-3.6-3.7-7.2-7.4-11.5-11.8 3.1.2 5.2.3 7.4.5.4 0 .9.5 1 .8 1.2 3.4 2.4 6.8 3.6 10.1l-.5.3zM221.1 163.2c2.2-2.7 4-5.1 5.9-7.4.2-.2.4-.3 1-.7v8.6c-2.4-.1-4.4-.3-6.9-.4zM76.5 59.3c2.6-3.8 4.8-7 7.2-10.6.3 5.7-1.7 8.7-7.2 10.6z"/><path class="cls-1" d="M147.4 147.2c-.6 11.7-4.4 21.7-12.2 30-3.3 3.6-5.7 3.8-9.8 1.1-7-4.7-14.1-9.4-21.1-14.1-3.6-2.4-4.4-4.9-2.5-8.8 2.9-6.1 3-12.1.4-18.3-1.6-3.9-.4-6.7 3.5-8.3 9.8-4 19.7-8 29.5-11.9 3.9-1.6 6.9 0 8.3 4 2.9 8.7 4.4 17.5 3.9 26.3zm-5.8.2c-.2-4-.3-7.5-.5-11.4-10.7 2.3-20.8 4.4-30.8 6.5v.8c10.2 1.3 20.4 2.7 31.2 4.1zm-34-13.1c1 2.4 1 2.4 2.9 2 2.6-.5 5.2-1 7.8-1.6 7.2-1.5 14.3-3 21.8-4.6-.8-2.7-1.5-5.2-2.3-8-10.2 4.1-20.1 8.1-30.2 12.2zm33.4 19c-10.7-1.4-20.8-2.7-31-4-.1.4-.2.8-.3 1.1 9.3 4.1 18.7 8.2 28.4 12.5 1-3.3 1.9-6.2 2.9-9.6zm-33.8 2.6c.3 1.7.2 3.1.7 3.4 7.2 5 14.6 9.9 22.1 14.9 1.7-2.1 3.3-4 5-6.2-9.2-4-18-7.9-27.8-12.2zM64.5 136.1c-6.8-.4-12.1-6.2-11.8-13 .3-6.9 6.3-12.3 13.2-11.9 7 .4 12.3 6.2 11.9 13.2-.4 7-6.3 12.2-13.3 11.8zm1.3-19c-3.7-.3-7 2.5-7.1 6.2-.2 3.6 2.6 6.6 6.2 6.8 3.6.2 6.7-2.5 7-6.1.3-3.6-2.5-6.7-6.1-7z"/><path class="cls-2" d="M141.6 147.4c-10.8-1.4-21-2.8-31.2-4.1v-.8c10.1-2.1 20.2-4.3 30.8-6.5.2 3.8.3 7.4.5 11.4zM107.6 134.3c10.1-4.1 20-8.1 30.2-12.2.8 2.7 1.5 5.2 2.3 8-7.4 1.6-14.6 3.1-21.8 4.6-2.6.5-5.2 1.1-7.8 1.6-1.9.4-1.9.4-2.9-2zM141 153.3c-1 3.4-1.9 6.4-2.9 9.6-9.7-4.3-19-8.4-28.4-12.5.1-.4.2-.8.3-1.1 10.2 1.3 20.4 2.6 31 4zM107.2 155.9c9.9 4.3 18.7 8.2 27.8 12.2-1.7 2.1-3.3 4.1-5 6.2-7.5-5-14.9-9.9-22.1-14.9-.6-.4-.4-1.8-.7-3.4zM65.8 117.1c3.6.3 6.3 3.4 6.1 7-.3 3.6-3.3 6.3-7 6.1-3.6-.2-6.4-3.3-6.2-6.8.2-3.7 3.4-6.5 7.1-6.2z"/></svg>