<?xml version="1.0" encoding="UTF-8" standalone="no"?>
<svg
   id="Warstwa_1"
   viewBox="0 0 283.46 283.46"
   version="1.1"
   sodipodi:docname="sanacja-icon.svg"
   inkscape:version="1.1.2 (b8e25be833, 2022-02-05)"
   xmlns:inkscape="http://www.inkscape.org/namespaces/inkscape"
   xmlns:sodipodi="http://sodipodi.sourceforge.net/DTD/sodipodi-0.dtd"
   xmlns="http://www.w3.org/2000/svg"
   xmlns:svg="http://www.w3.org/2000/svg">
  <sodipodi:namedview
     id="namedview22"
     pagecolor="#ffffff"
     bordercolor="#666666"
     borderopacity="1.0"
     inkscape:pageshadow="2"
     inkscape:pageopacity="0.0"
     inkscape:pagecheckerboard="0"
     showgrid="false"
     inkscape:zoom="2.1403289"
     inkscape:cx="141.80063"
     inkscape:cy="141.80063"
     inkscape:window-width="1920"
     inkscape:window-height="1051"
     inkscape:window-x="-9"
     inkscape:window-y="-9"
     inkscape:window-maximized="1"
     inkscape:current-layer="Warstwa_1" />
  <defs
     id="defs7">
    <style
       id="style2">.cls-1{clip-path:url(#clippath);}.cls-2{fill:none;}.cls-2,.cls-3,.cls-4,.cls-5{stroke-width:0px;}.cls-3{fill:#f9b61e;}.cls-4{fill:#111c12;}.cls-5{fill:#fff;}</style>
    <clipPath
       id="clippath">
      <ellipse
         class="cls-2"
         cx="202.16"
         cy="126.79"
         rx="19.9"
         ry="16.95"
         id="ellipse4" />
    </clipPath>
  </defs>
  <rect
     class="cls-4"
     x=".14"
     y="-.15"
     width="283.91"
     height="283.84"
     id="rect9" />
  <path
     class="cls-3"
     d="M 235.58049,113.56288 86.794765,21.841535 C 76.034544,15.214704 63.015158,14.946954 51.987177,21.10522 40.959196,27.263487 34.365834,38.492282 34.365834,51.143502 V 233.74948 c 0,19.11071 15.395666,34.74066 34.322294,34.8578 0.0502,0 0.100406,0 0.15061,0 5.907252,0 12.082256,-1.85753 17.838886,-5.37175 4.635436,-2.82812 6.091336,-8.86924 3.26322,-13.50467 -2.828124,-4.63544 -8.869252,-6.09133 -13.504686,-3.26322 -2.694236,1.63997 -5.321534,2.49343 -7.647624,2.49343 -7.145602,-0.0335 -14.793226,-6.15827 -14.793226,-15.19485 V 51.160236 c 0,-5.421951 2.828111,-10.241464 7.563951,-12.885502 4.735841,-2.644038 10.308404,-2.526898 14.927103,0.317954 L 225.27208,130.31404 c 4.46809,2.76117 7.02847,7.3464 7.02847,12.60101 0,5.25461 -2.59385,9.83984 -7.07867,12.58429 L 117.6363,221.36601 c -4.63543,2.82812 -6.07459,8.88598 -3.24647,13.50468 2.82811,4.63544 8.88597,6.07459 13.50467,3.24648 l 107.56885,-65.86668 c 10.29167,-6.2754 16.46667,-17.23645 16.4834,-29.30197 0.0167,-12.06551 -6.09133,-23.04329 -16.36626,-29.3689 z"
     id="path11" />
  <path
     class="cls-5"
     d="m 176.29044,129.56099 c -8.33374,-2.5771 -14.17405,-1.70692 -22.1731,-1.69018 -7.22927,0.0167 -4.04974,-0.66937 -29.06768,-2.81138 -8.5011,-0.71958 -12.85204,-1.08774 -17.08585,-1.12121 -14.3916,-0.11714 -22.139631,-0.0669 -26.975878,5.0538 -3.41383,3.61463 -4.65218,9.00311 -3.597909,13.48794 1.824056,7.76477 10.2582,11.58022 19.780087,15.73035 15.9479,6.96153 30.35623,7.76478 36.56471,7.86519 3.38035,0.0502 18.07317,0.11714 34.75739,-6.17501 10.62635,-4.01626 13.87283,-7.53049 15.57974,-10.67656 2.15874,-3.99952 3.53096,-10.60962 0,-15.17812 -1.38896,-1.80732 -3.4473,-3.1628 -7.79824,-4.50156 z"
     id="path13" />
  <path
     class="cls-5"
     d="m 171.88929,130.76587 c -28.06362,-0.13388 -53.83463,-6.10807 -71.38903,-5.6897 -43.927858,0.83672 -11.429608,37.98712 27.46118,37.98712 23.02656,0 50.18653,-5.95745 50.18653,-20.24864 0,-4.30075 -2.44324,-8.18313 -6.25868,-12.06551 m 12.5006,-0.3849 c 3.36363,4.16687 5.4889,8.45088 5.4889,12.90224 0,17.05237 -30.95867,25.2355 -61.61613,24.95102 -52.613009,-0.55224 -79.003192,-45.19967 -27.61179,-47.29147 17.23645,-0.55224 41.03279,3.88238 65.8834,4.98686 -17.08583,-13.72222 -46.67228,-27.728941 -46.67228,-51.993848 0,-24.264903 37.36795,-45.751897 65.43157,-45.751897 19.98089,0 17.9895,19.830286 17.23645,23.980422 -0.60244,4.300746 -5.79011,6.660298 -4.73584,0.552236 0.9204,-6.108063 3.19627,-19.964162 -13.2704,-19.964162 -26.39017,0 -56.42845,16.784622 -56.42845,40.898915 0,19.127452 35.07534,35.225954 52.31179,52.412204 19.37845,-0.41836 38.89078,-3.88238 56.27785,-14.42506 3.66484,-2.22569 4.41789,2.22567 1.67344,3.7485 -17.53767,9.83984 -35.99573,13.87283 -53.98524,14.97731"
     id="path15" />
  <g
     class="cls-1"
     clip-path="url(#clippath)"
     id="g19"
     transform="matrix(1.6734419,0,0,1.6734419,-108.07754,-90.1954)">
    <path
       class="cls-3"
       d="M 205.36,121.76 116.45,66.95 C 110.02,62.99 102.24,62.83 95.65,66.51 89.06,70.19 85.12,76.9 85.12,84.46 v 109.12 c 0,11.42 9.2,20.76 20.51,20.83 0.03,0 0.06,0 0.09,0 3.53,0 7.22,-1.11 10.66,-3.21 2.77,-1.69 3.64,-5.3 1.95,-8.07 -1.69,-2.77 -5.3,-3.64 -8.07,-1.95 -1.61,0.98 -3.18,1.49 -4.57,1.49 -4.27,-0.02 -8.84,-3.68 -8.84,-9.08 V 84.47 c 0,-3.24 1.69,-6.12 4.52,-7.7 2.83,-1.58 6.16,-1.51 8.92,0.19 l 88.91,54.81 c 2.67,1.65 4.2,4.39 4.2,7.53 0,3.14 -1.55,5.88 -4.23,7.52 l -64.29,39.36 c -2.77,1.69 -3.63,5.31 -1.94,8.07 1.69,2.77 5.31,3.63 8.07,1.94 l 64.28,-39.36 c 6.15,-3.75 9.84,-10.3 9.85,-17.51 0.01,-7.21 -3.64,-13.77 -9.78,-17.55 z"
       id="path17" />
  </g>
</svg>
