<svg xmlns="http://www.w3.org/2000/svg" version="1.1" xmlns:xlink="http://www.w3.org/1999/xlink" xmlns:svgjs="http://svgjs.com/svgjs" width="283.46" height="283.46"><svg id="SvgjsSvg1001" xmlns="http://www.w3.org/2000/svg" xmlns:xlink="http://www.w3.org/1999/xlink" viewBox="0 0 283.46 283.46"><defs><style>.cls-1{clip-path:url(#clippath);}.cls-2{fill:none;}.cls-2,.cls-3,.cls-4,.cls-5{stroke-width:0px;}.cls-3{fill:#f9b61e;}.cls-4{fill:#111c12;}.cls-5{fill:#fff;}</style><clipPath id="SvgjsClipPath1000"><ellipse class="cls-2" cx="202.16" cy="126.79" rx="19.9" ry="16.95"></ellipse></clipPath></defs><rect class="cls-4" x=".14" y="-.15" width="283.91" height="283.84"></rect><path class="cls-3" d="M205.36,121.76l-88.91-54.81c-6.43-3.96-14.21-4.12-20.8-.44-6.59,3.68-10.53,10.39-10.53,17.95v109.12c0,11.42,9.2,20.76,20.51,20.83.03,0,.06,0,.09,0,3.53,0,7.22-1.11,10.66-3.21,2.77-1.69,3.64-5.3,1.95-8.07-1.69-2.77-5.3-3.64-8.07-1.95-1.61.98-3.18,1.49-4.57,1.49-4.27-.02-8.84-3.68-8.84-9.08v-109.12c0-3.24,1.69-6.12,4.52-7.7,2.83-1.58,6.16-1.51,8.92.19l88.91,54.81c2.67,1.65,4.2,4.39,4.2,7.53,0,3.14-1.55,5.88-4.23,7.52l-64.29,39.36c-2.77,1.69-3.63,5.31-1.94,8.07,1.69,2.77,5.31,3.63,8.07,1.94l64.28-39.36c6.15-3.75,9.84-10.3,9.85-17.51.01-7.21-3.64-13.77-9.78-17.55Z"></path><path class="cls-5" d="M169.93,131.32c-4.98-1.54-8.47-1.02-13.25-1.01-4.32.01-2.42-.4-17.37-1.68-5.08-.43-7.68-.65-10.21-.67-8.6-.07-13.23-.04-16.12,3.02-2.04,2.16-2.78,5.38-2.15,8.06,1.09,4.64,6.13,6.92,11.82,9.4,9.53,4.16,18.14,4.64,21.85,4.7,2.02.03,10.8.07,20.77-3.69,6.35-2.4,8.29-4.5,9.31-6.38,1.29-2.39,2.11-6.34,0-9.07-.83-1.08-2.06-1.89-4.66-2.69Z"></path><path class="cls-5" d="M167.3,132.04c-16.77-.08-32.17-3.65-42.66-3.4-26.25.5-6.83,22.7,16.41,22.7,13.76,0,29.99-3.56,29.99-12.1,0-2.57-1.46-4.89-3.74-7.21M174.77,131.8c2.01,2.49,3.28,5.05,3.28,7.71,0,10.19-18.5,15.08-36.82,14.91-31.44-.33-47.21-27.01-16.5-28.26,10.3-.33,24.52,2.32,39.37,2.98-10.21-8.2-27.89-16.57-27.89-31.07s22.33-27.34,39.1-27.34c11.94,0,10.75,11.85,10.3,14.33-.36,2.57-3.46,3.98-2.83.33.55-3.65,1.91-11.93-7.93-11.93-15.77,0-33.72,10.03-33.72,24.44,0,11.43,20.96,21.05,31.26,31.32,11.58-.25,23.24-2.32,33.63-8.62,2.19-1.33,2.64,1.33,1,2.24-10.48,5.88-21.51,8.29-32.26,8.95"></path><g class="cls-1"><path class="cls-3" d="M205.36,121.76l-88.91-54.81c-6.43-3.96-14.21-4.12-20.8-.44-6.59,3.68-10.53,10.39-10.53,17.95v109.12c0,11.42,9.2,20.76,20.51,20.83.03,0,.06,0,.09,0,3.53,0,7.22-1.11,10.66-3.21,2.77-1.69,3.64-5.3,1.95-8.07-1.69-2.77-5.3-3.64-8.07-1.95-1.61.98-3.18,1.49-4.57,1.49-4.27-.02-8.84-3.68-8.84-9.08v-109.12c0-3.24,1.69-6.12,4.52-7.7,2.83-1.58,6.16-1.51,8.92.19l88.91,54.81c2.67,1.65,4.2,4.39,4.2,7.53,0,3.14-1.55,5.88-4.23,7.52l-64.29,39.36c-2.77,1.69-3.63,5.31-1.94,8.07,1.69,2.77,5.31,3.63,8.07,1.94l64.28-39.36c6.15-3.75,9.84-10.3,9.85-17.51.01-7.21-3.64-13.77-9.78-17.55Z"></path></g></svg><style>@media (prefers-color-scheme: light) { :root { filter: none; } }
</style></svg>